             <svg width="600" height="600" viewBox="0 90 699 470" xmlns="http://www.w3.org/2000/svg"  >
<g >
 <title>KDSK</title>
 <g id="freepik--background-complete--inject-14">
  <rect fill="#ebebeb" height="0.25" id="svg_1" width="500" y="382.4"/>
  <path d="m237,337.8l-193.09,0a5.71,5.71 0 0 1 -5.7,-5.71l0,-271.43a5.71,5.71 0 0 1 5.7,-5.66l193.09,0a5.71,5.71 0 0 1 5.71,5.71l0,271.38a5.71,5.71 0 0 1 -5.71,5.71zm-193.09,-282.6a5.46,5.46 0 0 0 -5.45,5.46l0,271.43a5.46,5.46 0 0 0 5.45,5.46l193.09,0a5.47,5.47 0 0 0 5.46,-5.46l0,-271.43a5.47,5.47 0 0 0 -5.46,-5.46l-193.09,0z" fill="#ebebeb" id="svg_2"/>
  <path d="m453.31,337.8l-193.1,0a5.72,5.72 0 0 1 -5.71,-5.71l0,-271.43a5.72,5.72 0 0 1 5.71,-5.66l193.1,0a5.71,5.71 0 0 1 5.69,5.66l0,271.43a5.71,5.71 0 0 1 -5.69,5.71zm-193.1,-282.6a5.47,5.47 0 0 0 -5.46,5.46l0,271.43a5.47,5.47 0 0 0 5.46,5.46l193.1,0a5.47,5.47 0 0 0 5.46,-5.46l0,-271.43a5.47,5.47 0 0 0 -5.46,-5.46l-193.1,0z" fill="#ebebeb" id="svg_3"/>
  <rect fill="#ebebeb" height="0.25" id="svg_4" width="26" x="51.28" y="391.92"/>
  <rect fill="#ebebeb" height="0.25" id="svg_5" width="45.03" x="145.15" y="389.21"/>
  <rect fill="#ebebeb" height="0.25" id="svg_6" width="60.79" x="78.28" y="401.21"/>
  <rect fill="#ebebeb" height="0.25" id="svg_7" width="19.23" x="429.49" y="399.53"/>
  <rect fill="#ebebeb" height="0.25" id="svg_8" width="55.29" x="365.29" y="399.53"/>
  <rect fill="#ebebeb" height="0.25" id="svg_9" width="74.47" x="257.05" y="395.31"/>
  <rect fill="#f0f0f0" height="107.89" id="svg_10" width="42.05" x="222.82" y="274.51"/>
  <rect fill="#f5f5f5" height="107.89" id="svg_11" transform="translate(295.17 656.91) rotate(180)" width="150.46" x="72.35" y="274.51"/>
  <rect fill="#fff" height="21.97" id="svg_12" transform="translate(188.26 721.81) rotate(180)" width="25.11" x="81.57" y="349.92"/>
  <rect fill="#ebebeb" height="21.97" id="svg_13" transform="translate(188.26 661.75) rotate(180)" width="25.11" x="81.57" y="319.89"/>
  <rect fill="#e6e6e6" height="4.33" id="svg_14" opacity="0.7" width="192.95" x="71.91" y="288.44"/>
  <rect fill="#f0f0f0" height="17.47" id="svg_15" width="44.37" x="222.82" y="272.42"/>
  <rect fill="#f5f5f5" height="17.47" id="svg_16" transform="translate(292.84 562.31) rotate(180)" width="152.79" x="70.03" y="272.42"/>
  <rect fill="#f0f0f0" height="33.25" id="svg_17" width="32.68" x="216.25" y="239.44"/>
  <rect fill="#f5f5f5" height="33.25" id="svg_18" transform="translate(318.7 512.12) rotate(180)" width="113.79" x="102.46" y="239.44"/>
  <rect fill="#e6e6e6" height="2.69" id="svg_19" opacity="0.7" width="146.81" x="102.12" y="244.45"/>
  <rect fill="#f0f0f0" height="7.77" id="svg_20" width="34.48" x="216.25" y="237.81"/>
  <rect fill="#f5f5f5" height="7.77" id="svg_21" transform="translate(316.9 483.39) rotate(180)" width="115.59" x="100.65" y="237.81"/>
  <rect fill="#e6e6e6" height="161.88" id="svg_22" transform="translate(606.81 602.92) rotate(180)" width="31.99" x="287.41" y="220.52"/>
  <polygon fill="#f0f0f0" id="svg_23" points="294.26 382.4 287.41 382.4 287.41 370.92 301.44 370.92 294.26 382.4"/>
  <rect fill="#e6e6e6" height="161.88" id="svg_24" transform="translate(820.24 602.92) rotate(180)" width="31.99" x="394.12" y="220.52"/>
  <rect fill="#f0f0f0" height="159.56" id="svg_25" transform="translate(687.51 600.6) rotate(180)" width="112.69" x="287.41" y="220.52"/>
  <rect fill="#e6e6e6" height="43.76" id="svg_26" transform="translate(687.51 498.95) rotate(180)" width="102.06" x="292.72" y="227.59"/>
  <path d="m350.46,248.54a6.71,6.71 0 1 1 -6.71,-6.71a6.7,6.7 0 0 1 6.71,6.71z" fill="#fafafa" id="svg_27"/>
  <polygon fill="#f0f0f0" id="svg_28" points="393.25 382.4 400.1 382.4 400.1 370.92 386.07 370.92 393.25 382.4"/>
  <rect fill="#e6e6e6" height="94.59" id="svg_29" width="102.06" x="292.72" y="278.42"/>
  <circle cx="380.69" cy="292.52" fill="#fafafa" id="svg_30" r="6.71"/>
  <rect fill="#e6e6e6" height="329.04" id="svg_31" transform="translate(387.74 -113.71) rotate(90)" width="130.98" x="185.24" y="-27.51"/>
  <rect fill="#f0f0f0" height="329.04" id="svg_32" transform="translate(386.29 -112.26) rotate(90)" width="130.98" x="183.78" y="-27.51"/>
  <rect fill="#fff" height="114.23" id="svg_33" width="312.3" x="93.13" y="79.9"/>
  <polygon fill="#e6e6e6" id="svg_34" points="129.54 127.5 118.56 146.53 140.53 146.53 129.54 127.5"/>
  <rect fill="#e6e6e6" height="17.94" id="svg_35" width="17.94" x="168.61" y="128.04"/>
  <polygon fill="#e6e6e6" id="svg_36" points="225.62 125.54 213.55 134.3 218.16 148.49 233.07 148.49 237.68 134.3 225.62 125.54"/>
  <polygon fill="#e6e6e6" id="svg_37" points="280 126.03 267.31 126.03 260.96 137.01 267.31 148 280 148 286.34 137.01 280 126.03"/>
  <polygon fill="#e6e6e6" id="svg_38" points="321.69 124.95 311.77 129.73 309.32 140.47 316.18 149.07 327.19 149.07 334.06 140.47 331.61 129.73 321.69 124.95"/>
  <polygon fill="#e6e6e6" id="svg_39" points="374.58 125.29 364.87 125.29 358 132.16 358 141.87 364.87 148.74 374.58 148.74 381.44 141.87 381.44 132.16 374.58 125.29"/>
 </g>
 <g id="freepik--Shadow--inject-14">
  <ellipse cx="250" cy="416.24" fill="#f5f5f5" id="freepik--path--inject-14" rx="193.89" ry="11.32"/>
 </g>
 <g id="freepik--to-do-list--inject-14">
  <path d="m239.41,129.51l164.65,0a5.94,5.94 0 0 1 6,6.38l-13.43,216.33a6.91,6.91 0 0 1 -6.78,6.39l-164.66,0a6,6 0 0 1 -6,-6.39l13.42,-216.33a6.92,6.92 0 0 1 6.8,-6.38z" fill="#407BFF" id="svg_40"/>
  <path d="m239.41,129.51l164.65,0a5.94,5.94 0 0 1 6,6.38l-13.43,216.33a6.91,6.91 0 0 1 -6.78,6.39l-164.66,0a6,6 0 0 1 -6,-6.39l13.42,-216.33a6.92,6.92 0 0 1 6.8,-6.38z" id="svg_41" opacity="0.4"/>
  <path d="m235.63,129.51l164.65,0a5.94,5.94 0 0 1 6,6.38l-13.43,216.33a6.91,6.91 0 0 1 -6.79,6.39l-164.65,0a6,6 0 0 1 -6,-6.39l13.42,-216.33a6.91,6.91 0 0 1 6.8,-6.38z" fill="#407BFF" id="svg_42"/>
  <polygon id="svg_43" opacity="0.4" points="224.34 346.93 384.61 348.85 397.61 139.33 237.22 139.33 224.34 346.93"/>
  <path d="m219.66,344.81l162.34,0c8.94,-81.91 11.69,-126.13 12.91,-208l-162.34,0c-1.22,81.87 -3.96,126.09 -12.91,208z" fill="#fff" id="svg_44"/>
  <path d="m375.49,193.75l-27.95,0a2,2 0 0 1 -1.5,-0.65a2.08,2.08 0 0 1 -0.56,-1.54l1.73,-27.94a2.07,2.07 0 0 1 2.06,-1.94l28,0a2.07,2.07 0 0 1 2.06,2.19l-1.74,27.95a2,2 0 0 1 -2.1,1.93zm-25.75,-4.12l23.81,0l1.45,-23.82l-23.79,0l-1.47,23.82z" fill="#407BFF" id="svg_45" opacity="0.3"/>
  <path d="m372.84,236.32l-27.94,0a2.07,2.07 0 0 1 -1.5,-0.65a2.05,2.05 0 0 1 -0.56,-1.54l1.73,-27.95a2.06,2.06 0 0 1 2.06,-1.93l27.95,0a2,2 0 0 1 1.5,0.65a2.08,2.08 0 0 1 0.56,1.54l-1.74,27.94a2.06,2.06 0 0 1 -2.06,1.94zm-25.75,-4.13l23.81,0l1.48,-23.82l-23.81,0l-1.48,23.82z" fill="#407BFF" id="svg_46" opacity="0.3"/>
  <path d="m370.2,278.88l-27.94,0a2.06,2.06 0 0 1 -1.51,-0.65a2,2 0 0 1 -0.55,-1.54l1.73,-27.94a2.07,2.07 0 0 1 2.06,-1.94l27.95,0a2.07,2.07 0 0 1 1.5,0.65a2.11,2.11 0 0 1 0.56,1.54l-1.74,28a2.06,2.06 0 0 1 -2.06,1.88zm-25.75,-4.12l23.81,0l1.48,-23.82l-23.81,0l-1.48,23.82z" fill="#407BFF" id="svg_47" opacity="0.3"/>
  <path d="m367.56,321.45l-27.94,0a2.1,2.1 0 0 1 -1.51,-0.65a2,2 0 0 1 -0.55,-1.54l1.73,-27.95a2.07,2.07 0 0 1 2.06,-1.93l27.95,0a2,2 0 0 1 1.5,0.65a2.08,2.08 0 0 1 0.56,1.54l-1.74,27.94a2.07,2.07 0 0 1 -2.06,1.94zm-25.75,-4.13l23.81,0l1.48,-23.82l-23.81,0l-1.48,23.82z" fill="#407BFF" id="svg_48" opacity="0.3"/>
  <path d="m259.88,174.06l63.29,0a3.78,3.78 0 0 0 3.71,-3.49l0,0a3.25,3.25 0 0 0 -3.28,-3.49l-63.28,0a3.76,3.76 0 0 0 -3.71,3.49l0,0a3.25,3.25 0 0 0 3.27,3.49z" fill="#407BFF" id="svg_49" opacity="0.3"/>
  <path d="m271,188.36l51.25,0a3.78,3.78 0 0 0 3.71,-3.49l0,0a3.25,3.25 0 0 0 -3.27,-3.5l-51.23,0a3.78,3.78 0 0 0 -3.71,3.5l0,0a3.25,3.25 0 0 0 3.25,3.49z" fill="#407BFF" id="svg_50" opacity="0.3"/>
  <path d="m256.79,223.94l63.29,0a3.25,3.25 0 0 1 3.27,3.49l0,0a3.78,3.78 0 0 1 -3.71,3.49l-63.29,0a3.25,3.25 0 0 1 -3.27,-3.49l0,0a3.78,3.78 0 0 1 3.71,-3.49z" fill="#407BFF" id="svg_51" opacity="0.3"/>
  <path d="m269.71,209.64l51.29,0a3.25,3.25 0 0 1 3.28,3.49l0,0a3.78,3.78 0 0 1 -3.71,3.5l-51.29,0a3.25,3.25 0 0 1 -3.28,-3.5l0,0a3.78,3.78 0 0 1 3.71,-3.49z" fill="#407BFF" id="svg_52" opacity="0.3"/>
  <path d="m254.6,259.19l63.29,0a3.78,3.78 0 0 0 3.71,-3.49l0,0a3.25,3.25 0 0 0 -3.28,-3.49l-63.32,0a3.78,3.78 0 0 0 -3.71,3.49l0,0a3.25,3.25 0 0 0 3.31,3.49z" fill="#407BFF" id="svg_53" opacity="0.3"/>
  <path d="m291.54,273.49l25.46,0a3.78,3.78 0 0 0 3.71,-3.49l0,0a3.26,3.26 0 0 0 -3.28,-3.5l-25.43,0a3.79,3.79 0 0 0 -3.71,3.5l0,0a3.25,3.25 0 0 0 3.25,3.49z" fill="#407BFF" id="svg_54" opacity="0.3"/>
  <path d="m265.75,273.49l13.43,0a3.78,3.78 0 0 0 3.71,-3.49l0,0a3.26,3.26 0 0 0 -3.28,-3.5l-13.43,0a3.79,3.79 0 0 0 -3.71,3.5l0,0a3.25,3.25 0 0 0 3.28,3.49z" fill="#407BFF" id="svg_55" opacity="0.3"/>
  <path d="m252,301.76l63.29,0a3.78,3.78 0 0 0 3.71,-3.49l0,0a3.26,3.26 0 0 0 -3.28,-3.5l-63.33,0a3.78,3.78 0 0 0 -3.71,3.5l0,0a3.25,3.25 0 0 0 3.32,3.49z" fill="#407BFF" id="svg_56" opacity="0.3"/>
  <path d="m263.11,316.06l51.25,0a3.79,3.79 0 0 0 3.71,-3.5l0,0a3.25,3.25 0 0 0 -3.28,-3.49l-51.25,0a3.78,3.78 0 0 0 -3.71,3.49l0,0a3.26,3.26 0 0 0 3.28,3.5z" fill="#407BFF" id="svg_57" opacity="0.3"/>
  <path d="m360.11,186.1a2,2 0 0 1 -1.16,-0.36l-10.77,-7.35a2.07,2.07 0 0 1 2.33,-3.41l9.2,6.29c3.36,-4.05 12.94,-15 20.91,-18.59a2.06,2.06 0 1 1 1.68,3.77c-8.7,3.87 -20.45,18.72 -20.56,18.87a2.08,2.08 0 0 1 -1.63,0.78z" fill="#407BFF" id="svg_58"/>
  <path d="m355.1,227.84a2.09,2.09 0 0 1 -1.44,-0.57l-9.37,-9a2.07,2.07 0 1 1 2.87,-3l8,7.69c3.95,-3.53 15,-12.93 23.36,-15.21a2.06,2.06 0 1 1 1.09,4c-9.12,2.49 -22.93,15.43 -23.07,15.56a2,2 0 0 1 -1.44,0.53z" fill="#407BFF" id="svg_59"/>
  <path d="m337.57,141.73l3,0a6.12,6.12 0 0 0 6.18,-6.06l0,-5.58a0.61,0.61 0 0 0 -0.62,-0.61l-8.48,0a0.7,0.7 0 0 0 -0.69,0.69l0.04,10.95a0.61,0.61 0 0 0 0.57,0.61z" id="svg_60" opacity="0.4"/>
  <path d="m291.55,119.39l51.06,0a4.93,4.93 0 0 1 5,5.76l-1.53,11.37a6.83,6.83 0 0 1 -6.54,5.76l-51.08,0a4.93,4.93 0 0 1 -5,-5.76l1.54,-11.37a6.83,6.83 0 0 1 6.55,-5.76z" fill="#407BFF" id="svg_61"/>
  <path d="m291.55,119.39l51.06,0a4.93,4.93 0 0 1 5,5.76l-1.53,11.37a6.83,6.83 0 0 1 -6.54,5.76l-51.08,0a4.93,4.93 0 0 1 -5,-5.76l1.54,-11.37a6.83,6.83 0 0 1 6.55,-5.76z" fill="#fff" id="svg_62" opacity="0.6"/>
  <path d="m341.29,124.89l-23,0a1.55,1.55 0 1 1 0,-3.09l23,0a1.55,1.55 0 0 1 0,3.09z" fill="#fff" id="svg_63" opacity="0.5"/>
  <path d="m310.64,124.89l-2.42,0a1.55,1.55 0 1 1 0,-3.09l2.42,0a1.55,1.55 0 1 1 0,3.09z" fill="#fff" id="svg_64" opacity="0.5"/>
 </g>
 <g id="freepik--Character--inject-14">
  <polygon fill="#407BFF" id="svg_65" points="169.46 346.65 179.33 348.54 202.66 238.82 188.17 236.05 169.46 346.65"/>
  <polygon fill="#263238" id="svg_66" points="204.15 162.64 215.97 158.75 216.79 154.46 205.78 154.12 204.15 162.64"/>
  <polygon fill="#407BFF" id="svg_67" points="203.85 160.14 217.31 155.76 203.48 234.52 188.99 231.76 203.85 160.14"/>
  <rect fill="#263238" height="4.37" id="svg_68" transform="matrix(-0.98, -0.19, 0.19, -0.98, 344.08, 503.11)" width="13.55" x="189.05" y="233.1"/>
  <path d="m171.24,359.64c-0.13,0.65 0.14,1.25 0.6,1.34s0.94,-0.37 1.06,-1s-0.15,-1.25 -0.61,-1.34s-0.93,0.36 -1.05,1z" fill="#407BFF" id="svg_69"/>
  <polygon fill="#263238" id="svg_70" points="170.56 359.72 173.5 360.28 179.33 348.54 169.46 346.65 170.56 359.72"/>
  <path d="m188.34,211.82a1.25,1.25 0 0 1 -1.13,-1.77c6.2,-13.29 11.23,-41.05 11.91,-47.65a5.39,5.39 0 0 1 3.24,-4.41l3.27,-1.41a1.24,1.24 0 1 1 1,2.28l-3.27,1.41a2.93,2.93 0 0 0 -1.75,2.39c-0.71,6.93 -5.7,34.68 -12.12,48.44a1.25,1.25 0 0 1 -1.15,0.72z" fill="#263238" id="svg_71"/>
  <path d="m142.27,158.79c-2.49,4.27 -5,8.8 -7.37,13.24c-1.17,2.24 -2.31,4.48 -3.4,6.73s-2.11,4.52 -3,6.78l-0.17,0.41s0,0 0,0a0.61,0.61 0 0 0 -0.07,0.21a5,5 0 0 0 -0.07,1a15.14,15.14 0 0 0 0.42,2.94a50,50 0 0 0 2.2,6.76c0.89,2.3 1.91,4.61 3,6.93s2.2,4.64 3.29,6.9l-4.75,3.24a86.84,86.84 0 0 1 -9.41,-13.27a48.71,48.71 0 0 1 -3.65,-7.76a25.79,25.79 0 0 1 -1.2,-4.72a15.21,15.21 0 0 1 -0.12,-2.93a12.65,12.65 0 0 1 0.24,-1.72c0.06,-0.29 0.16,-0.62 0.25,-0.93l0.16,-0.51a110.51,110.51 0 0 1 6,-15.21a142.3,142.3 0 0 1 7.79,-14.19l9.86,6.1z" fill="#ffc3bd" id="svg_72"/>
  <path d="m136.35,209.25l4.47,3.48l-6.82,5.64s-3.11,-3 -2.63,-6.69l4.98,-2.43z" fill="#ffc3bd" id="svg_73"/>
  <polygon fill="#ffc3bd" id="svg_74" points="142.64 217.81 138.09 223.66 133.99 218.37 140.82 212.73 142.64 217.81"/>
  <path d="m168,117.11c0.13,0.6 0.55,1 0.94,1s0.62,-0.64 0.5,-1.24s-0.55,-1 -0.94,-0.95s-0.58,0.58 -0.5,1.19z" fill="#263238" id="svg_75"/>
  <path d="m168.53,118.15a22.22,22.22 0 0 0 3.95,4.59a3.57,3.57 0 0 1 -2.79,1.13l-1.16,-5.72z" fill="#ed847e" id="svg_76"/>
  <path d="m165.14,114.2a0.37,0.37 0 0 1 -0.24,-0.1a0.35,0.35 0 0 1 0,-0.51a3.54,3.54 0 0 1 3.08,-1.2a0.36,0.36 0 1 1 -0.12,0.71l0,0a2.86,2.86 0 0 0 -2.43,1a0.36,0.36 0 0 1 -0.29,0.1z" fill="#263238" id="svg_77"/>
  <path d="m150.79,125.62c1.1,5.61 2.2,15.88 -1.72,19.62c0,0 1.53,5.68 11.94,5.68c11.45,0 5.48,-5.68 5.48,-5.68c-6.25,-1.5 -6.09,-6.13 -5,-10.49l-10.7,-9.13z" fill="#ffc3bd" id="svg_78"/>
  <path d="m146.85,145.66c-0.83,-2 1,-8 2.85,-8.57c2.09,-0.64 10,-0.28 14,1.37c2.81,2.84 3.62,8.73 3.62,8.73l-20.47,-1.53z" fill="#263238" id="svg_79"/>
  <path d="m114.15,407.52a2.46,2.46 0 0 0 1.9,-0.1a0.72,0.72 0 0 0 0.18,-0.84a0.86,0.86 0 0 0 -0.47,-0.54c-1,-0.49 -3.41,0.48 -3.51,0.52a0.17,0.17 0 0 0 -0.11,0.16a0.19,0.19 0 0 0 0.1,0.17a9,9 0 0 0 1.91,0.63zm1.24,-1.22l0.22,0.07a0.49,0.49 0 0 1 0.27,0.31c0.1,0.33 0,0.43 -0.06,0.46c-0.41,0.35 -1.94,0 -3,-0.4a5.88,5.88 0 0 1 2.57,-0.44z" fill="#407BFF" id="svg_80"/>
  <path d="m112.28,406.91l0.09,0c0.87,-0.25 2.72,-1.57 2.74,-2.44a0.58,0.58 0 0 0 -0.46,-0.58a1,1 0 0 0 -0.81,0.06c-1,0.52 -1.67,2.65 -1.69,2.74a0.17,0.17 0 0 0 0,0.18l0.13,0.04zm2.17,-2.71l0.08,0c0.22,0.08 0.22,0.19 0.22,0.23c0,0.52 -1.24,1.55 -2.13,2a4.36,4.36 0 0 1 1.39,-2.16a0.68,0.68 0 0 1 0.44,-0.07z" fill="#407BFF" id="svg_81"/>
  <path d="m169.44,408.81c1,0 1.94,-0.14 2.25,-0.58a0.67,0.67 0 0 0 0,-0.79a0.89,0.89 0 0 0 -0.58,-0.42c-1.27,-0.35 -3.95,1.17 -4.06,1.24a0.18,0.18 0 0 0 -0.09,0.19a0.17,0.17 0 0 0 0.14,0.14a13.19,13.19 0 0 0 2.34,0.22zm1.22,-1.49a1.29,1.29 0 0 1 0.35,0.05a0.49,0.49 0 0 1 0.35,0.25c0.13,0.22 0.09,0.34 0,0.4c-0.36,0.5 -2.29,0.51 -3.72,0.31a8.1,8.1 0 0 1 3.02,-1.01z" fill="#407BFF" id="svg_82"/>
  <path d="m167.13,408.6l0.07,0c0.93,-0.41 2.76,-2.07 2.62,-2.94c0,-0.2 -0.18,-0.45 -0.68,-0.5a1.28,1.28 0 0 0 -1,0.31c-1,0.8 -1.18,2.86 -1.19,2.95a0.16,0.16 0 0 0 0.07,0.16a0.15,0.15 0 0 0 0.11,0.02zm1.87,-3.11l0.11,0c0.32,0 0.34,0.16 0.35,0.2c0.09,0.52 -1.16,1.82 -2.1,2.39a4.25,4.25 0 0 1 1,-2.36a1,1 0 0 1 0.64,-0.23z" fill="#407BFF" id="svg_83"/>
  <polygon fill="#ffc3bd" id="svg_84" points="158.71 408.42 166.37 408.42 167.13 390.68 159.47 390.68 158.71 408.42"/>
  <polygon fill="#ffc3bd" id="svg_85" points="103.43 404.87 111.12 406.49 116.55 389.97 108.85 388.35 103.43 404.87"/>
  <path d="m112,405.74l-8.41,-1.82a0.67,0.67 0 0 0 -0.75,0.37l-2.92,6.34a1.13,1.13 0 0 0 0.81,1.57c2.95,0.58 4.41,0.72 8.11,1.52c2.27,0.49 7.41,1.74 10.55,2.42s4.23,-2.34 3,-2.9c-5.49,-2.51 -7.79,-4.72 -9.27,-6.78a1.88,1.88 0 0 0 -1.12,-0.72z" fill="#263238" id="svg_86"/>
  <path d="m166.32,407.53l-8.32,0a0.67,0.67 0 0 0 -0.65,0.52l-1.51,6.81a1.1,1.1 0 0 0 1.1,1.36c3,-0.05 7.38,-0.22 11.17,-0.22c4.43,0 2.71,0.24 7.91,0.24c3.15,0 4,-3.18 2.7,-3.47c-6,-1.31 -5.33,-1.45 -10.51,-4.64a3.5,3.5 0 0 0 -1.89,-0.6z" fill="#263238" id="svg_87"/>
  <path d="m135.35,147c-7.18,1.64 -13.09,20 -13.09,20l14.41,11a31.51,31.51 0 0 0 7.65,-14.16c2.47,-9.67 -1.63,-18.56 -8.97,-16.84z" fill="#263238" id="svg_88"/>
  <path d="m141.51,160.45c-3.9,3.85 -5.17,10.88 -5.48,17l0.64,0.49a31.4,31.4 0 0 0 7.65,-14.16c0.15,-0.57 0.27,-1.15 0.38,-1.71l-3.19,-1.62z" id="svg_89" opacity="0.2"/>
  <path d="m178.27,147.36s8.15,9.21 0.45,66.21l-41,0c-0.28,-6.29 3.67,-37 -2.4,-66.6a106.75,106.75 0 0 1 13.72,-1.73a148.77,148.77 0 0 1 17.42,0a76.94,76.94 0 0 1 11.81,2.12z" fill="#263238" id="svg_90"/>
  <polygon id="svg_91" opacity="0.2" points="167.13 390.68 166.74 399.83 159.07 399.83 159.46 390.68 167.13 390.68"/>
  <polygon id="svg_92" opacity="0.2" points="108.85 388.35 116.55 389.97 113.74 398.49 106.05 396.87 108.85 388.35"/>
  <path d="m147.59,119.93c2,7.34 2.74,11.74 7.27,14.79c6.82,4.6 15.31,-0.67 15.57,-8.46c0.24,-7 -3,-17.83 -10.9,-19.31a10.36,10.36 0 0 0 -11.94,12.98z" fill="#ffc3bd" id="svg_93"/>
  <path d="m154.91,133.87l-0.1,0a7.44,7.44 0 0 1 -6.07,-3.08c-2.3,-3.21 -5.53,-8.78 -5.9,-15.21c2.92,-3.08 13.89,-5.11 18.78,-4c4.07,0.93 3.48,12.52 -0.37,18.79a7.47,7.47 0 0 1 -6.34,3.5z" fill="#ffc3bd" id="svg_94"/>
  <path d="m154.91,133.87l-0.1,0a7.44,7.44 0 0 1 -6.07,-3.08c-2.3,-3.21 -5.53,-8.78 -5.9,-15.21c2.92,-3.08 13.89,-5.11 18.78,-4c4.07,0.93 3.48,12.52 -0.37,18.79a7.47,7.47 0 0 1 -6.34,3.5z" fill="#263238" id="svg_95" opacity="0.8"/>
  <path d="m147.29,118.19a6.61,6.61 0 0 1 -6,-4.27c-0.87,-2.6 0.05,-8.09 5.28,-8.25s5.77,-3.14 4.16,-3.75c3.42,0.25 2.34,2.64 2.34,2.64c0.91,0 1.77,-2.45 7,-2.25s7.78,-0.92 7.11,-2.09c2.47,0.5 1.78,3.5 -0.31,4.31c0,0 4.95,3.75 6.12,1.69c0.83,1.5 -0.81,3.3 -7.06,2.48c2.49,3.49 -3.41,2.71 -5.92,4.29s-9.27,5.45 -12.72,5.2z" fill="#263238" id="svg_96"/>
  <path d="m160.08,119.59a8.66,8.66 0 0 0 3.09,4.57c2,1.48 3.48,0 3.34,-2.24c-0.12,-2 -1.32,-5.25 -3.51,-5.85s-3.49,1.31 -2.92,3.52z" fill="#ffc3bd" id="svg_97"/>
  <path d="m164.19,213.57s-8.7,58.54 -13.47,80.47c-5.22,24 -33.25,103.47 -33.25,103.47l-13.71,-3s19.6,-64.76 24,-98.33c3.37,-25.79 10,-82.65 10,-82.65l26.43,0.04z" fill="#263238" id="svg_98"/>
  <path d="m120.76,392.94s-2.56,5 -2.56,5l-15.43,-3.34l1.3,-4.64l16.69,2.98z" fill="#407BFF" id="svg_99"/>
  <path d="m158.69,234.43c-10.05,2 -9,39.45 -7.77,58.73c2.89,-13.63 7.14,-39.85 10,-58.46a3.46,3.46 0 0 0 -2.23,-0.27z" id="svg_100" opacity="0.3"/>
  <path d="m178.72,213.57s1.06,57.27 0.22,80.63c-0.86,24.3 -9.35,103.86 -9.35,103.86l-13,0s-0.47,-78.14 -1.05,-102c-0.63,-26 -3.77,-82.49 -3.77,-82.49l26.95,0z" fill="#263238" id="svg_101"/>
  <path d="m172.09,392.89c0.06,0 -0.74,5.38 -0.74,5.38l-15.78,0l-0.43,-4.8l16.95,-0.58z" fill="#407BFF" id="svg_102"/>
  <path d="m178.46,146.35c2,0.83 3.93,2.32 4.51,7.27c0.56,4.75 -0.52,46.38 -1.82,59.67a1.92,1.92 0 0 1 -1.69,1.83c-8.19,0.35 -33.56,-3.07 -42.12,-1.57c-1,0.18 -1.87,-0.92 -1.81,-1.92c0.67,-12.95 -0.3,-33.85 -1.88,-47.12c-1,-8.67 -1,-17.74 6.23,-19.28c5.38,-1.14 30.76,-2.14 38.58,1.12z" fill="#407BFF" id="svg_103"/>
  <path d="m181.63,157.85c0.46,2.2 1,4.59 1.5,6.87s1.12,4.59 1.76,6.84s1.3,4.46 2.06,6.57a36.22,36.22 0 0 0 2.56,5.79a11.49,11.49 0 0 0 1.33,2c0.19,0.21 0.34,0.35 0.38,0.39s0,0.09 0.19,0.15a5.33,5.33 0 0 0 2,0.26a24,24 0 0 0 3,-0.32a88.11,88.11 0 0 0 13.26,-3.9l2.91,5a50.42,50.42 0 0 1 -13.72,7.84a25,25 0 0 1 -4.26,1.15a15.57,15.57 0 0 1 -5.32,0.08a10.87,10.87 0 0 1 -3.25,-1.1a13.13,13.13 0 0 1 -2.54,-1.85a20.73,20.73 0 0 1 -3.21,-3.82a60.81,60.81 0 0 1 -6.51,-14.87c-0.75,-2.47 -1.44,-4.94 -2,-7.43s-1.12,-4.91 -1.55,-7.56l11.41,-2.09z" fill="#ffc3bd" id="svg_104"/>
  <path d="m164.78,154.85c-6.22,12.51 8.56,26.65 8.56,26.65l16.48,-8.6a90.25,90.25 0 0 0 -5.63,-19.32c-4.8,-10.68 -15.83,-5.92 -19.41,1.27z" fill="#263238" id="svg_105"/>
  <path d="m208.14,183.2l5.59,-3.68l2.32,8.36s-2.5,2.93 -7.08,-0.26l-0.83,-4.42z" fill="#ffc3bd" id="svg_106"/>
  <path d="m218.6,182.9l-0.18,1.76a3.36,3.36 0 0 1 -1.14,2.18l-1.23,1l-2.32,-8.36l0.71,-0.18a3.34,3.34 0 0 1 4.16,3.6z" fill="#ffc3bd" id="svg_107"/>
 </g>
</g>
</svg>