                <svg width="500" height="500" viewBox="5 90 699 470" xmlns="http://www.w3.org/2000/svg"   >

                  <g>
                    <title>KDSK</title>
                    <g id="freepik--background-complete--inject-3">
                      <rect fill="#ebebeb" height="0.25" id="svg_1" width="500" y="382.4" />
                      <rect fill="#ebebeb" height="0.25" id="svg_2" width="33.12" x="416.78" y="398.49" />
                      <rect fill="#ebebeb" height="0.25" id="svg_3" width="8.69" x="322.53" y="401.21" />
                      <rect fill="#ebebeb" height="0.25" id="svg_4" width="19.19" x="396.59" y="389.21" />
                      <rect fill="#ebebeb" height="0.25" id="svg_5" width="43.19" x="52.46" y="390.89" />
                      <rect fill="#ebebeb" height="0.25" id="svg_6" width="6.33" x="104.56" y="390.89" />
                      <rect fill="#ebebeb" height="0.25" id="svg_7" width="93.68" x="131.47" y="395.11" />
                      <path d="m237,337.8l-193.09,0a5.71,5.71 0 0 1 -5.7,-5.71l0,-271.43a5.71,5.71 0 0 1 5.7,-5.66l193.09,0a5.71,5.71 0 0 1 5.71,5.71l0,271.38a5.71,5.71 0 0 1 -5.71,5.71zm-193.09,-282.6a5.46,5.46 0 0 0 -5.45,5.46l0,271.43a5.46,5.46 0 0 0 5.45,5.46l193.09,0a5.47,5.47 0 0 0 5.46,-5.46l0,-271.43a5.47,5.47 0 0 0 -5.46,-5.46l-193.09,0z" fill="#ebebeb" id="svg_8" />
                      <path d="m453.31,337.8l-193.1,0a5.72,5.72 0 0 1 -5.71,-5.71l0,-271.43a5.72,5.72 0 0 1 5.71,-5.66l193.1,0a5.71,5.71 0 0 1 5.69,5.66l0,271.43a5.71,5.71 0 0 1 -5.69,5.71zm-193.1,-282.6a5.47,5.47 0 0 0 -5.46,5.46l0,271.43a5.47,5.47 0 0 0 5.46,5.46l193.1,0a5.47,5.47 0 0 0 5.46,-5.46l0,-271.43a5.47,5.47 0 0 0 -5.46,-5.46l-193.1,0z" fill="#ebebeb" id="svg_9" />
                      <rect fill="#ebebeb" height="8.31" id="svg_10" transform="translate(-25.21 38.74) rotate(-12.15)" width="8.31" x="165.24" y="133.66" />
                      <circle cx="179.26" cy="183.65" fill="#e0e0e0" id="svg_11" r="45.81" transform="translate(-13.69 352.85) rotate(-86.94)" />
                      <circle cx="179.26" cy="183.65" fill="#f0f0f0" id="svg_12" r="39.88" transform="translate(-75.57 153.31) rotate(-38.9)" />
                      <rect fill="#e0e0e0" height="9.37" id="svg_13" transform="translate(-23.88 38.3) rotate(-12.15)" width="14.97" x="160.51" y="126.64" />
                      <path d="m183.06,182.83a3.88,3.88 0 1 1 -4.61,-3a3.88,3.88 0 0 1 4.61,3z" fill="#e0e0e0" id="svg_14" />
                      <path d="m169.67,151.45c1.21,2.56 2.25,5.17 3.3,7.78l1.5,3.93l1.42,4c1,2.64 1.83,5.3 2.68,8s1.68,5.34 2.45,8l-3,-0.82q2.72,-2.49 5.49,-4.92c1.85,-1.62 3.73,-3.21 5.62,-4.77s3.82,-3.11 5.76,-4.63s3.93,-3 6,-4.38c-1.55,2 -3.18,3.8 -4.82,5.64s-3.32,3.64 -5,5.4s-3.43,3.53 -5.18,5.25s-3.52,3.43 -5.32,5.1l-2.14,2l-0.87,-2.82c-0.82,-2.68 -1.59,-5.37 -2.34,-8.07s-1.47,-5.4 -2.13,-8.13l-1,-4.09l-0.89,-4.11c-0.59,-2.81 -1.15,-5.56 -1.53,-8.36z" fill="#e0e0e0" id="svg_15" />
                      <path d="m423.43,163.24l-36,104.57l-145.43,-50.04l36,-104.58l4.89,1.68a3.17,3.17 0 1 0 5.06,3.43a3,3 0 0 0 0.11,-1.65l4.88,1.68a3,3 0 0 0 -0.93,1.37a3.17,3.17 0 0 0 6,2.06a3,3 0 0 0 0.1,-1.65l4.88,1.67a3,3 0 0 0 -0.93,1.37a3.17,3.17 0 1 0 6,2.06a3.12,3.12 0 0 0 0.11,-1.65l4.87,1.67a3.17,3.17 0 1 0 5.06,3.43a3.11,3.11 0 0 0 0.11,-1.65l4.87,1.68a3.1,3.1 0 0 0 -0.93,1.37a3.17,3.17 0 1 0 6.1,0.41l4.87,1.67a3.1,3.1 0 0 0 -0.93,1.37a3.17,3.17 0 1 0 6,2.06a3.12,3.12 0 0 0 0.11,-1.65l4.87,1.68a3,3 0 0 0 -0.93,1.37a3.17,3.17 0 0 0 6,2.06a3.13,3.13 0 0 0 0.11,-1.65l4.87,1.67a3.17,3.17 0 1 0 5.06,3.43a3,3 0 0 0 0.11,-1.65l4.87,1.68a3.17,3.17 0 1 0 5.07,3.42a3,3 0 0 0 0.1,-1.65l4.88,1.68a3,3 0 0 0 -0.93,1.37a3.17,3.17 0 1 0 6.1,0.41l4.87,1.67a3.1,3.1 0 0 0 -0.93,1.37a3.17,3.17 0 1 0 6,2.06a3.12,3.12 0 0 0 0.11,-1.65l4.87,1.68a3,3 0 0 0 -0.93,1.37a3.17,3.17 0 0 0 6,2.06a3.13,3.13 0 0 0 0.11,-1.65l4.87,1.67a3.1,3.1 0 0 0 -0.93,1.37a3.17,3.17 0 1 0 6,2.06a3.12,3.12 0 0 0 0.11,-1.65l4.87,1.68a3.07,3.07 0 0 0 -0.93,1.36a3.17,3.17 0 1 0 6,2.06a3.11,3.11 0 0 0 0.11,-1.65l4.75,1.69z" fill="#f0f0f0" id="svg_16" />
                      <path d="m423.43,163.24l-7.33,21.31l-145.49,-50l7.33,-21.32l4.89,1.68a3.17,3.17 0 1 0 5.06,3.43a3,3 0 0 0 0.11,-1.65l4.88,1.68a3,3 0 0 0 -0.93,1.37a3.17,3.17 0 0 0 6,2.06a3,3 0 0 0 0.1,-1.65l4.88,1.67a3,3 0 0 0 -0.93,1.37a3.17,3.17 0 1 0 6,2.06a3.12,3.12 0 0 0 0.11,-1.65l4.87,1.67a3.17,3.17 0 1 0 5.06,3.43a3.11,3.11 0 0 0 0.11,-1.65l4.87,1.68a3.1,3.1 0 0 0 -0.93,1.37a3.17,3.17 0 1 0 6.1,0.41l4.87,1.67a3.1,3.1 0 0 0 -0.93,1.37a3.17,3.17 0 1 0 6,2.06a3.12,3.12 0 0 0 0.11,-1.65l4.87,1.68a3,3 0 0 0 -0.93,1.37a3.17,3.17 0 0 0 6,2.06a3.13,3.13 0 0 0 0.11,-1.65l4.87,1.67a3.17,3.17 0 1 0 5.06,3.43a3,3 0 0 0 0.11,-1.65l4.87,1.68a3.17,3.17 0 1 0 5.07,3.42a3,3 0 0 0 0.1,-1.65l4.88,1.68a3,3 0 0 0 -0.93,1.37a3.17,3.17 0 1 0 6.1,0.41l4.87,1.67a3.1,3.1 0 0 0 -0.93,1.37a3.17,3.17 0 1 0 6,2.06a3.12,3.12 0 0 0 0.11,-1.65l4.87,1.68a3,3 0 0 0 -0.93,1.37a3.17,3.17 0 0 0 6,2.06a3.13,3.13 0 0 0 0.11,-1.65l4.87,1.67a3.1,3.1 0 0 0 -0.93,1.37a3.17,3.17 0 1 0 6,2.06a3.12,3.12 0 0 0 0.11,-1.65l4.87,1.68a3.07,3.07 0 0 0 -0.93,1.36a3.17,3.17 0 1 0 6,2.06a3.11,3.11 0 0 0 0.11,-1.65l4.81,1.65z" fill="#e0e0e0" id="svg_17" />
                      <rect fill="#fafafa" height="16.85" id="svg_18" transform="translate(71.18 -95.12) rotate(18.98)" width="16.85" x="311.63" y="156.88" />
                      <rect fill="#fafafa" height="16.85" id="svg_19" transform="translate(74.34 -100.96) rotate(18.98)" width="16.85" x="330.69" y="163.44" />
                      <rect fill="#fafafa" height="16.85" id="svg_20" transform="translate(77.51 -106.8) rotate(18.98)" width="16.85" x="349.74" y="169.99" />
                      <rect fill="#fafafa" height="16.85" id="svg_21" transform="translate(80.68 -112.64) rotate(18.98)" width="16.85" x="368.8" y="176.55" />
                      <rect fill="#fafafa" height="16.85" id="svg_22" transform="translate(83.85 -118.48) rotate(18.98)" width="16.85" x="387.85" y="183.1" />
                      <rect fill="#fafafa" height="16.85" id="svg_23" transform="translate(70.37 -80.43) rotate(18.98)" width="16.85" x="267.32" y="161.8" />
                      <rect fill="#fafafa" height="16.85" id="svg_24" transform="translate(73.53 -86.28) rotate(18.98)" width="16.85" x="286.37" y="168.36" />
                      <rect fill="#fafafa" height="16.85" id="svg_25" transform="translate(76.7 -92.12) rotate(18.98)" width="16.85" x="305.43" y="174.91" />
                      <rect fill="#fafafa" height="16.85" id="svg_26" transform="translate(79.87 -97.96) rotate(18.98)" width="16.85" x="324.48" y="181.47" />
                      <rect fill="#fafafa" height="16.85" id="svg_27" transform="translate(83.04 -103.8) rotate(18.98)" width="16.85" x="343.54" y="188.02" />
                      <rect fill="#fafafa" height="16.85" id="svg_28" transform="translate(86.21 -109.64) rotate(18.98)" width="16.85" x="362.6" y="194.58" />
                      <rect fill="#fafafa" height="16.85" id="svg_29" transform="translate(89.38 -115.49) rotate(18.98)" width="16.85" x="381.65" y="201.13" />
                      <rect fill="#fafafa" height="16.85" id="svg_30" transform="translate(75.89 -77.44) rotate(18.98)" width="16.85" x="261.12" y="179.83" />
                      <rect fill="#fafafa" height="16.85" id="svg_31" transform="translate(79.06 -83.28) rotate(18.98)" width="16.85" x="280.17" y="186.39" />
                      <rect fill="#fafafa" height="16.85" id="svg_32" transform="translate(82.23 -89.12) rotate(18.98)" width="16.85" x="299.23" y="192.94" />
                      <rect fill="#fafafa" height="16.85" id="svg_33" transform="translate(85.4 -94.96) rotate(18.98)" width="16.85" x="318.28" y="199.5" />
                      <rect fill="#fafafa" height="16.85" id="svg_34" transform="translate(88.57 -100.8) rotate(18.98)" width="16.85" x="337.34" y="206.05" />
                      <rect fill="#fafafa" height="16.85" id="svg_35" transform="translate(91.73 -106.65) rotate(18.98)" width="16.85" x="356.4" y="212.61" />
                      <rect fill="#fafafa" height="16.85" id="svg_36" transform="translate(94.9 -112.49) rotate(18.98)" width="16.85" x="375.45" y="219.16" />
                      <rect fill="#fafafa" height="16.85" id="svg_37" transform="translate(81.42 -74.44) rotate(18.98)" width="16.85" x="254.91" y="197.86" />
                      <rect fill="#fafafa" height="16.85" id="svg_38" transform="translate(84.59 -80.28) rotate(18.98)" width="16.85" x="273.97" y="204.42" />
                      <rect fill="#fafafa" height="16.85" id="svg_39" transform="translate(87.76 -86.12) rotate(18.98)" width="16.85" x="293.03" y="210.97" />
                      <rect fill="#fafafa" height="16.85" id="svg_40" transform="translate(90.92 -91.97) rotate(18.98)" width="16.85" x="312.08" y="217.52" />
                      <rect fill="#fafafa" height="16.85" id="svg_41" transform="translate(94.09 -97.81) rotate(18.98)" width="16.85" x="331.14" y="224.08" />
                      <rect fill="#fafafa" height="16.85" id="svg_42" transform="translate(97.26 -103.65) rotate(18.98)" width="16.85" x="350.19" y="230.63" />
                      <path d="m338.14,202.1a1.51,1.51 0 0 1 -1.35,-0.84l-10.45,-21.42a1.5,1.5 0 1 1 2.69,-1.31l10.46,21.47a1.5,1.5 0 0 1 -0.69,2a1.41,1.41 0 0 1 -0.66,0.1z" fill="#e0e0e0" id="svg_43" />
                      <path d="m322.2,196.62a1.5,1.5 0 0 1 -0.66,-2.85l21.46,-10.45a1.5,1.5 0 0 1 1.32,2.7l-21.42,10.45a1.55,1.55 0 0 1 -0.7,0.15z" fill="#e0e0e0" id="svg_44" />
                      <path d="m80.83,152.88l0,6.64l3.41,0.32a18.07,18.07 0 0 0 2.55,6.16l-2.19,2.65l4.69,4.69l2.65,-2.2a17.52,17.52 0 0 0 6.13,2.55l0.32,3.41l6.61,0l0.32,-3.41a17.6,17.6 0 0 0 6.13,-2.55l2.65,2.2l4.69,-4.69l-2.17,-2.65a17.86,17.86 0 0 0 2.54,-6.13l3.42,-0.32l0,-6.64l-3.42,-0.32a17.86,17.86 0 0 0 -2.54,-6.13l2.19,-2.65l-4.69,-4.69l-2.65,2.2a17.6,17.6 0 0 0 -6.13,-2.55l-0.32,-3.42l-6.63,0l-0.32,3.42a17.52,17.52 0 0 0 -6.13,2.55l-2.65,-2.2l-4.69,4.69l2.19,2.65a18.07,18.07 0 0 0 -2.55,6.13l-3.41,0.29zm20.87,-5.66a9,9 0 1 1 -9,9a9,9 0 0 1 9,-9z" fill="#ebebeb" id="svg_45" />
                      <path d="m238.51,312.11a30.63,30.63 0 0 0 10.57,-4.4l4.58,3.79l8.1,-8.1l-3.76,-4.57a30.68,30.68 0 0 0 4.4,-10.58l5.89,-0.55l0,-11.45l-5.89,-0.56a30.68,30.68 0 0 0 -4.4,-10.58l3.79,-4.57l-8.1,-8.1l-4.58,3.79a30.63,30.63 0 0 0 -10.57,-4.4l-0.56,-5.89l-11.48,0l-0.55,5.89a30.68,30.68 0 0 0 -10.58,4.4l-4.57,-3.79l-8.1,8.1l3.79,4.57a30.68,30.68 0 0 0 -4.4,10.58l-5.89,0.56l0,11.45l5.89,0.55a30.68,30.68 0 0 0 4.4,10.58l-3.79,4.57l8.1,8.1l4.57,-3.79a30.68,30.68 0 0 0 10.58,4.4l0.55,5.89l11.5,0l0.51,-5.89zm-21.78,-30.11a15.5,15.5 0 1 1 15.5,15.5a15.5,15.5 0 0 1 -15.5,-15.5z" fill="#e0e0e0" id="svg_46" />
                      <path d="m111,360.73l1.74,1.44l3.09,-3.09l-1.45,-1.74a11.5,11.5 0 0 0 1.68,-4l2.25,-0.21l0,-4.37l-2.25,-0.21a11.34,11.34 0 0 0 -1.68,-4l1.45,-1.75l-3.09,-3.09l-1.74,1.39a11.47,11.47 0 0 0 -4,-1.68l-0.21,-2.25l-4.36,0l-0.22,2.25a11.5,11.5 0 0 0 -4,1.68l-1.74,-1.45l-3.09,3.09l1.44,1.75a11.51,11.51 0 0 0 -1.67,4l-2.25,0.21l0,4.37l2.25,0.21a11.67,11.67 0 0 0 1.67,4l-1.44,1.74l3.09,3.09l1.74,-1.44a11.67,11.67 0 0 0 4,1.67l0.22,2.25l4.36,0l0.21,-2.25a11.64,11.64 0 0 0 4,-1.61zm-12.34,-9.82a5.91,5.91 0 1 1 5.91,5.91a5.91,5.91 0 0 1 -5.94,-5.91l0.03,0z" fill="#e6e6e6" id="svg_47" />
                      <path d="m236,132.07l1,0.84l1.79,-1.79l-0.83,-1a6.83,6.83 0 0 0 1,-2.34l1.3,-0.12l0,-2.53l-1.3,-0.12a6.83,6.83 0 0 0 -1,-2.34l0.83,-1l-1.79,-1.81l-1,0.84a6.66,6.66 0 0 0 -2.33,-1l-0.13,-1.31l-2.54,0l-0.12,1.3a6.84,6.84 0 0 0 -2.34,1l-1,-0.84l-1.78,1.79l0.83,1a6.83,6.83 0 0 0 -1,2.34l-1.3,0.12l0,2.53l1.3,0.12a6.83,6.83 0 0 0 1,2.34l-0.83,1l1.78,1.79l1,-0.84a6.63,6.63 0 0 0 2.34,1l0.12,1.3l2.53,0l0.13,-1.3a6.66,6.66 0 0 0 2.34,-0.97zm-7.15,-5.69a3.43,3.43 0 1 1 3.43,3.43a3.43,3.43 0 0 1 -3.48,-3.43l0.05,0z" fill="#f5f5f5" id="svg_48" />
                      <path d="m389.28,124.11l1,0.84l1.79,-1.79l-0.84,-1a6.63,6.63 0 0 0 1,-2.34l1.31,-0.12l0,-2.53l-1.31,-0.13a6.66,6.66 0 0 0 -1,-2.33l0.84,-1l-1.79,-1.79l-1,0.84a6.84,6.84 0 0 0 -2.34,-1l-0.12,-1.3l-2.53,0l-0.12,1.3a6.84,6.84 0 0 0 -2.34,1l-1,-0.84l-1.83,1.77l0.84,1a6.66,6.66 0 0 0 -1,2.33l-1.31,0.13l0,2.53l1.31,0.12a6.63,6.63 0 0 0 1,2.34l-0.84,1l1.79,1.79l1,-0.84a6.63,6.63 0 0 0 2.34,1l0.12,1.3l2.53,0l0.12,-1.3a6.63,6.63 0 0 0 2.38,-0.98zm-7.15,-5.69a3.43,3.43 0 1 1 3.43,3.43a3.42,3.42 0 0 1 -3.43,-3.43z" fill="#f0f0f0" id="svg_49" />
                      <path d="m422.15,284.13l1.74,1.44l3.09,-3.08l-1.44,-1.75a11.67,11.67 0 0 0 1.67,-4l2.25,-0.21l0,-4.37l-2.25,-0.21a11.59,11.59 0 0 0 -1.67,-4l1.44,-1.75l-3.09,-3.09l-1.74,1.45a11.88,11.88 0 0 0 -4,-1.68l-0.22,-2.25l-4.36,0l-0.21,2.25a11.85,11.85 0 0 0 -4,1.68l-1.74,-1.45l-3.09,3.09l1.45,1.75a11.42,11.42 0 0 0 -1.68,4l-2.25,0.21l0,4.37l2.25,0.21a11.5,11.5 0 0 0 1.68,4l-1.45,1.75l3.09,3.08l1.74,-1.44a11.85,11.85 0 0 0 4,1.68l0.21,2.24l4.36,0l0.22,-2.24a11.88,11.88 0 0 0 4,-1.68zm-12.34,-9.82a5.91,5.91 0 1 1 5.91,5.91a5.92,5.92 0 0 1 -5.91,-5.91z" fill="#ebebeb" id="svg_50" />
                      <path d="m302.22,378.85l2.76,2.28l4.88,-4.88l-2.28,-2.76a18.48,18.48 0 0 0 2.65,-6.38l3.55,-0.33l0,-6.9l-3.55,-0.34a18.51,18.51 0 0 0 -2.65,-6.37l2.28,-2.76l-4.86,-4.88l-2.76,2.28a18.51,18.51 0 0 0 -6.37,-2.65l-0.34,-3.55l-6.9,0l-0.33,3.55a18.48,18.48 0 0 0 -6.38,2.65l-2.76,-2.28l-4.88,4.88l2.28,2.76a18.51,18.51 0 0 0 -2.65,6.37l-3.55,0.34l0,6.9l3.55,0.33a18.48,18.48 0 0 0 2.65,6.38l-2.28,2.76l4.88,4.88l2.76,-2.28a18.48,18.48 0 0 0 6.38,2.65l0.33,3.55l6.9,0l0.34,-3.55a18.51,18.51 0 0 0 6.35,-2.65zm-19.5,-15.52a9.35,9.35 0 1 1 9.34,9.34a9.35,9.35 0 0 1 -9.34,-9.34z" fill="#f0f0f0" id="svg_51" />
                    </g>
                    <g id="freepik--Shadow--inject-3">
                      <ellipse cx="250" cy="416.24" fill="#f5f5f5" id="freepik--path--inject-3" rx="193.89" ry="11.32" />
                    </g>
                    <g id="freepik--Hourglass--inject-3">
                      <path d="m140.88,193.43c-32.34,5.57 -57.6,15.57 -56.44,22.36l0.55,3.14l0,0c1.16,6.75 28.33,7.7 60.66,2.1s57.61,-15.6 56.44,-22.35l-0.54,-3.14c-1.17,-6.76 -28.33,-7.7 -60.67,-2.11z" fill="#407BFF" id="svg_52" />
                      <ellipse cx="143.54" cy="208.8" fill="#fff" id="svg_53" opacity="0.2" rx="59.42" ry="12.41" transform="translate(-33.48 27.51) rotate(-9.81)" />
                      <path d="m142.58,203.25c-29,5 -51.58,14 -50.53,20l0.9,5.23l0,0c1,6.05 25.37,6.89 54.32,1.88s51.58,-14 50.53,-20l0,0l-0.9,-5.22c-1.05,-6.05 -25.37,-6.9 -54.32,-1.89z" fill="#407BFF" id="svg_54" />
                      <ellipse cx="145.38" cy="219.43" fill="#fff" id="svg_55" opacity="0.2" rx="53.2" ry="11.11" transform="translate(-35.27 27.98) rotate(-9.81)" />
                      <path d="m172.81,282.64a9.26,9.26 0 0 1 -2.51,-14.48c11.73,-12.77 25.93,-33.1 22.33,-54c-0.78,-4.47 -22.34,-4.48 -48.16,0s-46.13,11.72 -45.36,16.19c3.61,20.87 23.81,35.25 39.15,43.34a9.26,9.26 0 0 1 2.51,14.48c-11.74,12.76 -25.94,33.09 -22.33,54c0.78,4.48 22.34,4.49 48.16,0s46.13,-11.72 45.4,-16.17c-3.65,-20.9 -23.86,-35.28 -39.19,-43.36z" fill="#407BFF" id="svg_56" />
                      <path d="m172.81,282.64a9.26,9.26 0 0 1 -2.51,-14.48c11.73,-12.77 25.93,-33.1 22.33,-54c-0.78,-4.47 -22.34,-4.48 -48.16,0s-46.13,11.72 -45.36,16.19c3.61,20.87 23.81,35.25 39.15,43.34a9.26,9.26 0 0 1 2.51,14.48c-11.74,12.76 -25.94,33.09 -22.33,54c0.78,4.48 22.34,4.49 48.16,0s46.13,-11.72 45.4,-16.17c-3.65,-20.9 -23.86,-35.28 -39.19,-43.36z" fill="#fff" id="svg_57" opacity="0.8" />
                      <path d="m209.66,327.17c0.46,4.69 -82.72,20.88 -88.25,13.69a5.84,5.84 0 0 1 -0.62,-5.55a15.88,15.88 0 0 1 2.48,-4.61c2.57,-3.48 8.24,-5 12.08,-6.4c2.59,-0.95 5.2,-1.82 7.81,-2.72c2.8,-1 5.68,-0.3 8.11,-2.43c1.46,-1.27 2.55,-3.16 4.42,-3.62c1.39,-0.34 2.88,0.21 4.25,-0.16c1.78,-0.48 3.05,-2.4 4.89,-2.43a11.56,11.56 0 0 1 2.67,0.65c1.6,0.34 3.24,-0.19 4.88,-0.34a20.53,20.53 0 0 1 4.82,0.35a146.72,146.72 0 0 0 15,2.07c3.71,0.2 7.82,0.11 11.44,1.13a6.9,6.9 0 0 1 3.68,3.24l0,0a17.38,17.38 0 0 1 2.34,7.13z" fill="#263238" id="svg_58" />
                      <path d="m182.08,317c0.07,0 0,0 -0.17,0l0.17,0z" fill="#fff" id="svg_59" opacity="0.2" />
                      <path d="m207.35,320c-2.3,-2.08 -6.55,-1.94 -7.77,-1.85s-1.65,-0.95 -2.57,-1.29s-6.36,0.36 -6.36,0.36s2,0.39 2.42,1.05s2.7,-0.1 3,-0.19c-0.31,0.18 -3.09,1.64 -4.4,0.76s-1.85,0.76 -2.89,1.18s-4.32,0 -4.85,-0.17a41.42,41.42 0 0 0 -4.7,0a6.69,6.69 0 0 1 2.68,-1c0.88,0.1 4.39,-1.75 3.67,-1.62s-2.36,-0.83 -3.64,-1.23a17.09,17.09 0 0 0 -4.64,0.3a15.13,15.13 0 0 1 4.59,0.64a21.71,21.71 0 0 0 -3,0.95a9.8,9.8 0 0 1 -2.76,0.47a3.86,3.86 0 0 0 -1.86,1.44a28.59,28.59 0 0 1 -3.47,0.6a8.42,8.42 0 0 1 -3.41,-0.4l3.16,-1l-1.08,-0.31a12.58,12.58 0 0 0 -2.28,-0.53c-1.27,-0.21 -1.81,1 -2.12,1.29s-3.09,0 -3.87,-0.19s-6.55,2.15 -6.55,2.15l3.61,-0.62a8.83,8.83 0 0 0 2.95,0.69c2.41,0.32 2.76,-0.48 3.77,-0.41s4.36,1 4.36,1l-1.3,0.35a12.53,12.53 0 0 1 -3.46,0c-2,-0.27 -3.08,0.78 -3.68,0.89a30.82,30.82 0 0 1 -4.69,0.68c-0.65,-0.14 -2.36,0.66 -3.3,1.62a4.11,4.11 0 0 1 -4.16,1c-1.82,-0.47 -4.89,1.75 -4.89,1.75s1.61,-2.13 2.45,-2.28a22.9,22.9 0 0 0 3.75,-1.88a7.14,7.14 0 0 0 -1.34,0.11a3.39,3.39 0 0 1 -2.49,-0.81c-1,-0.69 -2,-0.15 -3.47,0.6s-3.05,1.64 -4.6,0.55s-6.3,2.94 -6.3,2.94a17.89,17.89 0 0 0 3.15,-1.08c0.44,-0.36 0.75,0 2.15,0.29s1.86,-0.69 2.55,-1.06s2.76,0.25 2.76,0.25a3.11,3.11 0 0 1 -1.57,0.29c-0.76,-0.12 -2,2.07 -2.4,1.83s-3.31,0.14 -4.56,0.79s-3.09,2.82 -4.94,2.15c-1.57,-0.57 -5.11,4.24 -8.22,4.3a15.88,15.88 0 0 1 2.48,-4.61c2.57,-3.48 8.24,-5 12.08,-6.4c2.59,-0.95 5.2,-1.82 7.81,-2.72c2.8,-1 5.68,-0.3 8.11,-2.43c1.46,-1.27 2.55,-3.16 4.42,-3.62c1.39,-0.34 2.88,0.21 4.25,-0.16c1.78,-0.48 3.05,-2.4 4.89,-2.43a11.56,11.56 0 0 1 2.67,0.65c1.6,0.34 3.24,-0.19 4.88,-0.34a20.53,20.53 0 0 1 4.82,0.35a146.72,146.72 0 0 0 15,2.07c3.71,0.2 7.82,0.11 11.44,1.13a6.9,6.9 0 0 1 3.72,3.16z" fill="#fff" id="svg_60" opacity="0.2" />
                      <path d="m163.8,326c-29,5 -51.58,14 -50.54,20l0.91,5.23l0,0c1,6 25.36,6.89 54.32,1.88s51.58,-14 50.53,-20l0,0l-0.9,-5.22c-1.05,-6.1 -25.37,-6.95 -54.32,-1.89z" fill="#407BFF" id="svg_61" />
                      <path d="m165.41,335.3c-32.33,5.59 -57.6,15.6 -56.43,22.36l0.54,3.13l0,0c1.17,6.76 28.33,7.7 60.67,2.11s57.6,-15.6 56.43,-22.36l-0.54,-3.13c-1.17,-6.76 -28.33,-7.7 -60.67,-2.11z" fill="#407BFF" id="svg_62" />
                      <path d="m128.16,366.48l-2.34,-0.11l2.34,0.11z" fill="#fff" id="svg_63" opacity="0.2" />
                      <path d="m182.06,360.59l-0.21,0l0.21,0z" fill="#fff" id="svg_64" opacity="0.2" />
                      <path d="m115.7,365c0.32,0.09 0.66,0.17 1,0.25c-0.34,-0.12 -0.7,-0.2 -1,-0.25z" fill="#fff" id="svg_65" opacity="0.2" />
                      <path d="m165.41,335.3c-32.33,5.59 -57.6,15.6 -56.43,22.36l0.54,3.13a4.06,4.06 0 0 0 2.21,2.64a4.06,4.06 0 0 1 -2.21,-2.64c-1.17,-6.79 24.1,-16.79 56.48,-22.35s59.49,-4.65 60.66,2.1l0,0l-0.54,-3.13c-1.21,-6.76 -28.37,-7.7 -60.71,-2.11z" fill="#fff" id="svg_66" opacity="0.2" />
                      <path d="m160.47,274.28c-0.63,5 -2.46,12.57 -3.28,17.62s1.64,12.88 2.37,15.25s5.66,2 5.46,3.89s7.36,2.21 7.36,2.21s-35.42,14 -39,13.11s6.64,-7.88 8.6,-8.34s3,-1.67 4.32,-4.47s2.68,-2.3 4.06,-5.11a63.39,63.39 0 0 0 3.32,-6.49c1.57,-3.9 2.93,-15.89 1.28,-16.9s-0.15,9.19 -1.57,9.53s1.85,-10.08 -2.46,-15.34s9.54,-4.96 9.54,-4.96z" fill="#263238" id="svg_67" />
                      <path d="m172.37,313.25s-35.41,14 -39,13.11c-3.27,-0.81 5.09,-6.8 8,-8.11c0.19,2.06 5.74,-0.05 7.94,-1.27s2.37,-0.33 3.18,-0.69s6.95,-4.94 6.31,-4.75s-5.21,3.56 -6.31,2.46s-2.92,1 -4.28,1.64c-1.18,0.57 -1.48,-0.12 -2.46,-1c0.19,-0.35 0.37,-0.73 0.56,-1.13c1.29,-2.8 2.67,-2.3 4,-5.11a60.79,60.79 0 0 0 3.39,-6.4c1.58,-3.9 2.94,-15.89 1.3,-16.9s-0.16,9.19 -1.57,9.52s1.83,-10.07 -2.47,-15.33s9.51,-5 9.51,-5c-0.63,5 -2.46,12.57 -3.28,17.62c-0.54,3.31 0.33,7.81 1.2,11.19c-0.23,0.82 -0.55,1.57 -0.93,1.69c-0.91,0.27 -1.55,3.38 -2.74,3.47s-0.19,2.28 1.46,1.37c1.09,-0.6 2.81,-1 4,-1.52c1.54,1.37 5,1.35 4.82,2.94c-0.17,1.89 7.37,2.2 7.37,2.2z" fill="#fff" id="svg_68" opacity="0.2" />
                      <path d="m179.68,251.42l-0.42,0.69a84.83,84.83 0 0 1 -4.52,7.18a44.46,44.46 0 0 1 -5.43,6.87c-1.92,1.85 -3.88,2.72 -5,4.93a7.72,7.72 0 0 0 -0.65,1.73c-0.42,1.67 -0.55,3.68 -2,4.62a7.55,7.55 0 0 0 -1,0.61c-0.73,0.63 -0.69,1.73 -0.88,2.67s-1.1,2 -2,1.54s-0.94,-1.61 -1.75,-1.57a3.12,3.12 0 0 0 -0.59,0.19c-0.82,0.21 -1.58,-0.43 -2.21,-1s-1.53,-1.09 -2.25,-0.65a40.15,40.15 0 0 0 -7.14,-5.23c-2.08,-1.26 -4.24,-2.39 -6.51,-3.61c-5,-2.72 -10.8,-5.4 -14.3,-8.16a10.06,10.06 0 0 1 -2.79,-3.1a4,4 0 0 1 -0.4,-1.29c-0.58,-4.94 14.71,-6.41 20,-10.09s13.55,-1.32 17,-2.09s7.38,0.32 11.05,0.05s5.93,-1.33 8.07,0.23s4.51,1.09 5,2.28c0.24,0.78 -0.66,2.22 -1.28,3.2z" fill="#263238" id="svg_69" />
                      <path d="m175,249.86c-3.16,-0.61 3.29,-0.73 2.8,-1.1s-2.07,-1.57 -5.59,-1.45s-6.46,-0.12 -7.21,0s2.45,1.09 2.45,1.09l-8.25,0c-2.68,0 1.83,-1.09 1.83,-1.09l-13.89,0c0.37,0 3.05,1.58 1.46,1.58s-3.29,0.85 -5.48,1.7a37.31,37.31 0 0 1 -5.35,1.71c-0.36,0 5,-4 5.33,-4.26c-0.33,0.14 -4.8,2 -6.67,2.55s-7,2.32 -7.44,2.44a21.6,21.6 0 0 0 2.81,0s-3.78,1.95 -5.72,2.19c-1.46,0.18 -5,1.38 -5.86,3.92a10.06,10.06 0 0 0 2.79,3.1c3.5,2.76 9.28,5.44 14.3,8.16c2.27,1.22 4.43,2.35 6.51,3.61a40.15,40.15 0 0 1 7.14,5.23c0.72,-0.44 1.63,0.1 2.25,0.65s1.39,1.2 2.21,1a3.12,3.12 0 0 1 0.59,-0.19c0.81,0 1,1.2 1.75,1.57s1.75,-0.6 2,-1.54s0.15,-2 0.88,-2.67a7.55,7.55 0 0 1 1,-0.61c1.46,-0.94 1.59,-2.95 2,-4.62a7.72,7.72 0 0 1 0.65,-1.73c1.15,-2.21 3.11,-3.08 5,-4.93a44.46,44.46 0 0 0 5.43,-6.87a84.83,84.83 0 0 0 4.52,-7.18c-1.1,-1.91 -1.05,-1.65 -4.24,-2.26zm-45.23,12.91c-1.06,-0.12 2.37,-1.19 2.37,-1.19a2.57,2.57 0 0 1 -2.35,1.19l-0.02,0zm0.64,-4.11s1.73,-1.37 2.46,-1.28a15.37,15.37 0 0 0 2.11,0s-2.72,1.83 -4.55,1.28l-0.02,0zm13.79,10.69c-1.25,-0.24 1.32,-1 1.94,-0.83s-0.46,1.1 -1.92,0.83l-0.02,0zm6.17,-14s-5.3,1.56 -4.23,1.56l2,0c-0.37,0 -5.85,1.19 -6.12,1.14a25.77,25.77 0 0 1 3.26,-1.84s-0.39,-0.49 -0.37,-0.67s1.24,-0.55 1.24,-0.55c0.43,-0.37 2.35,-0.91 3.08,-0.46a7,7 0 0 0 2.65,0.46l-1.51,0.36zm2.23,10.87c-1.48,-1.35 2.91,0 2.91,0s-1.89,0.93 -2.89,0.02l-0.02,-0.02zm2.4,-14.5c2,-1.37 2.5,0 2.5,0s-3.15,0.44 -2.5,0zm6.93,5.3l-1.54,-0.79a5.73,5.73 0 0 1 2.1,-0.76a4.9,4.9 0 0 1 2.83,0.76c0.54,0.33 -2.86,1.06 -3.4,0.77l0.01,0.02zm3.94,6.72s-2.46,-0.06 -2.7,0a21,21 0 0 1 2.7,-0.95l0,0.95zm3.82,-9.89s1.75,-0.38 2.57,0.53c1.1,1.22 -2.58,-0.53 -2.58,-0.53l0.01,0z" fill="#fff" id="svg_70" opacity="0.2" />
                    </g>
                    <g id="freepik--sheets-2--inject-3">
                      <path d="m319.54,394.88l8.06,2.43l44.07,0l1,-17.66l-8.55,-3.65s1.59,-13.65 4.14,-28.28l5.85,-0.18l12.42,-49l-7.06,-3.05l5.11,-16.23l7.67,0l8.18,-22.76s-29.43,-11.71 -46.91,-13.26l-15.7,2.63l-1.09,20.44l-12.79,1.69l-2.51,22l9.09,1.56l-5.85,46.8l-13.13,3.69l-2.29,32.23l11.43,2.35l-1.14,18.25z" fill="#407BFF" id="svg_71" />
                      <path d="m384.59,279.27l-5.12,16.23l7.06,3.05l-12.43,49l-5.84,0.18c-2.56,14.63 -4.14,28.28 -4.14,28.28l8.53,3.65l-1,17.67l-44.06,0l-8.06,-2.43l1.16,-18.23l-11.44,-2.34l2.23,-31.44l0.06,-0.79l13.14,-3.69l5.84,-46.8l-9.09,-1.61l2.57,-22l12.78,-1.69l1.1,-20.44l15.69,-2.64c17.52,1.56 46.91,13.27 46.91,13.27l-8.18,22.77l-7.71,0z" fill="#fff" id="svg_72" opacity="0.6" />
                      <polygon fill="#fff" id="svg_73" opacity="0.4" points="372.65 379.64 329.05 380.86 320.69 376.65 330.27 378.43 364.12 375.99 372.65 379.64" />
                      <polygon fill="#fff" id="svg_74" opacity="0.4" points="368.26 347.71 336.73 347.81 311.48 342.87 311.54 342.08 324.68 338.39 338.56 346.71 368.26 347.71" />
                      <polygon id="svg_75" opacity="0.2" points="379.47 295.5 340.57 291.69 330.52 291.59 321.43 290.03 340.01 287.9 379.47 295.5" />
                      <polygon id="svg_76" opacity="0.2" points="392.25 279.27 384.58 279.27 353.89 265.25 336.73 266.31 354.83 263.97 392.25 279.27" />
                      <polygon fill="#fff" id="svg_77" opacity="0.2" points="353.52 243.23 354.83 263.97 336.73 266.31 337.82 245.88 353.52 243.23" />
                      <polygon fill="#fff" id="svg_78" opacity="0.2" points="340.01 287.9 345.01 266.31 323.95 268 321.43 290.03 340.01 287.9" />
                      <polygon fill="#fff" id="svg_79" opacity="0.2" points="330.52 291.59 349.57 292.57 338.56 346.71 324.68 338.39 330.52 291.59" />
                      <polygon fill="#fff" id="svg_80" opacity="0.2" points="311.48 342.87 336.73 347.81 331.63 378.33 309.25 374.31 311.48 342.87" />
                      <polygon fill="#fff" id="svg_81" opacity="0.2" points="329.05 380.86 327.59 397.31 319.53 394.88 320.69 376.66 329.05 380.86" />
                      <polygon fill="#407BFF" id="svg_82" points="313.4 349.69 335.57 354.74 361.69 353.59 336.73 359.19 313.4 349.69" />
                      <polygon fill="#407BFF" id="svg_83" points="320.35 381.97 328.51 386.98 348.23 386.98 324.29 388.9 316.27 383.42 320.35 381.97" />
                      <polygon fill="#407BFF" id="svg_84" points="337.13 391.86 371.98 391.86 376 394.88 337.13 391.86" />
                      <polygon fill="#407BFF" id="svg_85" points="329.97 362.78 310.45 357.32 306.96 359.19 329.97 362.78" />
                      <polygon fill="#407BFF" id="svg_86" points="335.81 370.45 365.15 367.94 368.26 369.19 335.81 370.45" />
                      <polygon fill="#407BFF" id="svg_87" points="345.01 338.39 376.71 337.25 379.47 339.58 345.01 338.39" />
                      <polygon fill="#407BFF" id="svg_88" points="368.26 331.73 342.21 328.77 326.13 322.78 320.69 322.78 339.87 330.82 368.26 331.73" />
                      <polygon fill="#407BFF" id="svg_89" points="332.25 308.35 345.4 313.08 386.41 316.39 382.71 313.64 345.01 311.27 332.25 308.35" />
                      <polygon fill="#407BFF" id="svg_90" points="336.73 280.96 318.46 281.87 322.99 284.06 336.73 280.96" />
                      <polygon fill="#407BFF" id="svg_91" points="329.05 273.47 342.94 271.62 378.74 284.06 342.75 274.75 329.05 273.47" />
                      <polygon fill="#407BFF" id="svg_92" points="373.44 266.31 352.07 254.77 330.88 261.41 337.13 263.09 354.83 260.54 373.44 266.31" />
                      <polygon fill="#407BFF" id="svg_93" points="366.86 258.31 399.01 271.62 395 271.62 366.86 258.31" />
                      <path d="m356.64,248.26l16.07,1.83l25,13.88s-32.31,-14.06 -41.07,-15.71z" fill="#407BFF" id="svg_94" />
                      <polygon fill="#407BFF" id="svg_95" points="329.6 297.58 337.54 299.58 326.32 298.58 329.6 297.58" />
                      <polygon fill="#fff" id="svg_96" opacity="0.7" points="313.4 349.69 335.57 354.74 361.69 353.59 336.73 359.19 313.4 349.69" />
                      <polygon fill="#fff" id="svg_97" opacity="0.7" points="320.35 381.97 328.51 386.98 348.23 386.98 324.29 388.9 316.27 383.42 320.35 381.97" />
                      <polygon fill="#fff" id="svg_98" opacity="0.7" points="337.13 391.86 371.98 391.86 376 394.88 337.13 391.86" />
                      <polygon fill="#fff" id="svg_99" opacity="0.7" points="329.97 362.78 310.45 357.32 306.96 359.19 329.97 362.78" />
                      <polygon fill="#fff" id="svg_100" opacity="0.7" points="335.81 370.45 365.15 367.94 368.26 369.19 335.81 370.45" />
                      <polygon fill="#fff" id="svg_101" opacity="0.7" points="345.01 338.39 376.71 337.25 379.47 339.58 345.01 338.39" />
                      <polygon fill="#fff" id="svg_102" opacity="0.7" points="368.26 331.73 342.21 328.77 326.13 322.78 320.69 322.78 339.87 330.82 368.26 331.73" />
                      <polygon fill="#fff" id="svg_103" opacity="0.7" points="332.25 308.35 345.4 313.08 386.41 316.39 382.71 313.64 345.01 311.27 332.25 308.35" />
                      <polygon fill="#fff" id="svg_104" opacity="0.7" points="336.73 280.96 318.46 281.87 322.99 284.06 336.73 280.96" />
                      <polygon fill="#fff" id="svg_105" opacity="0.7" points="329.05 273.47 342.94 271.62 378.74 284.06 342.75 274.75 329.05 273.47" />
                      <polygon fill="#fff" id="svg_106" opacity="0.7" points="373.44 266.31 352.07 254.77 330.88 261.41 337.13 263.09 354.83 260.54 373.44 266.31" />
                      <polygon fill="#fff" id="svg_107" opacity="0.7" points="366.86 258.31 399.01 271.62 395 271.62 366.86 258.31" />
                      <path d="m356.64,248.26l16.07,1.83l25,13.88s-32.31,-14.06 -41.07,-15.71z" fill="#fff" id="svg_108" opacity="0.7" />
                      <polygon fill="#fff" id="svg_109" opacity="0.7" points="329.6 297.58 337.54 299.58 326.32 298.58 329.6 297.58" />
                      <polygon id="svg_110" opacity="0.1" points="335.81 302.69 346.67 305.43 377.19 308.35 346.67 306.86 335.81 302.69" />
                      <polygon id="svg_111" opacity="0.1" points="332.25 294.65 349.57 295.5 382.02 301.05 348.56 297.58 332.25 294.65" />
                      <polygon id="svg_112" opacity="0.1" points="327.6 284.97 341.19 282.83 375.63 290.82 340.9 284.06 327.6 284.97" />
                      <polygon id="svg_113" opacity="0.1" points="330.88 278.17 342.34 277.84 377.19 286.82 342.01 279.27 330.88 278.17" />
                      <polygon id="svg_114" opacity="0.1" points="323.53 271.62 340.93 269.63 323.53 272.92 323.53 271.62" />
                      <polygon id="svg_115" opacity="0.1" points="322.99 276.37 329.05 276.37 322.99 277.84 322.99 276.37" />
                      <polygon id="svg_116" opacity="0.1" points="337.54 251.08 353.84 248.26 375.63 256.12 354.04 250.09 337.54 252.19 337.54 251.08" />
                      <polygon id="svg_117" opacity="0.1" points="393.73 275.14 368.87 267.38 393.03 277.1 393.73 275.14" />
                      <polygon id="svg_118" opacity="0.1" points="350.45 253.01 354.09 252.19 393.73 264.96 354.26 253.5 350.45 253.01" />
                      <polygon id="svg_119" opacity="0.1" points="399.78 258.31 385.56 253.25 399.01 259.59 399.78 258.31" />
                      <polygon id="svg_120" opacity="0.1" points="329.05 314.01 344.26 318.66 378.74 321.44 343.94 320.27 329.05 314.01" />
                      <polygon id="svg_121" opacity="0.1" points="325.77 328.38 341.08 334.29 375.63 335.08 340.92 335.08 325.77 328.38" />
                      <polygon id="svg_122" opacity="0.1" points="369.36 344.33 339.87 341.05 327.6 336.05 339.34 342.87 369.36 344.33" />
                      <path d="m379.62,325.8c-0.28,-0.1 -23.78,-0.71 -23.78,-0.71l23.41,2.17l0.37,-1.46z" id="svg_123" opacity="0.1" />
                      <polygon id="svg_124" opacity="0.1" points="311.04 345.19 336.25 350.69 353.89 350.69 336.06 351.77 311.48 346.71 311.04 345.19" />
                      <path d="m366.6,357.86c0,0.05 -24.51,2.74 -24.51,2.74l24.3,-1.37l0.21,-1.37z" id="svg_125" opacity="0.1" />
                      <path d="m316.27,356.14c-0.33,-0.16 15.22,3.09 15.22,3.09s-9.68,-0.32 -15.22,-3.09z" id="svg_126" opacity="0.1" />
                      <polygon id="svg_127" opacity="0.1" points="310.07 362.78 331.49 367.94 310.07 364.43 310.07 362.78" />
                      <polygon id="svg_128" opacity="0.1" points="314.08 370.45 332.25 374.59 359.33 374.04 332.25 375.99 314.08 370.45" />
                      <polygon id="svg_129" opacity="0.1" points="338.68 365.36 357.67 365.36 342.08 366.13 338.68 365.36" />
                      <path d="m323,380.86l5.84,2.55s31.06,-0.25 30.5,0s-30.62,1.35 -30.62,1.35l-5.72,-3.9z" id="svg_130" opacity="0.1" />
                      <path d="m368.26,388.9s-29,0.73 -28.39,0.73l24,0l4.39,-0.73z" id="svg_131" opacity="0.1" />
                      <path d="m372.65,382.81s-4.76,-0.48 -4.39,0s4.15,1.11 4.15,1.11l0.24,-1.11z" id="svg_132" opacity="0.1" />
                      <polygon id="svg_133" opacity="0.1" points="322.99 391.86 327.99 392.9 354.84 394.88 327.87 394.24 322.99 391.86" />
                    </g>
                    <g id="freepik--Character--inject-3">
                      <path d="m271.51,183.52c6.44,2.86 18.56,2.47 23.21,-7.72s4.32,-18.93 -6.2,-23.83s-23.78,1.35 -24.91,10.62s-2.26,16.41 7.9,20.93z" fill="#263238" id="svg_134" />
                      <path d="m147.46,378.61a9.83,9.83 0 0 0 1.5,-3.23l0,0s3.17,-3.62 13.23,-5.9l0.89,-4.53a3.82,3.82 0 0 0 -1.84,-4a2.16,2.16 0 0 0 -0.61,-0.24a24.78,24.78 0 0 0 -3.33,-0.27a92.34,92.34 0 0 0 -11.17,0.64l0.05,0.8l7,-0.12c2.39,0 -0.29,2 -2.82,2.65s-5.19,2 -5,7.19c0.31,6.14 0.7,8.65 2.1,7.01z" fill="#2e353a" id="svg_135" />
                      <path d="m164.79,369.12s-12.92,3.43 -15.83,6.26c0,0 -1.78,-4.87 4.88,-8.33c8.62,-4.47 6.79,-6.3 6.79,-6.3a21.28,21.28 0 0 1 3.69,1.43c2.26,1.34 0.47,6.94 0.47,6.94z" fill="#e4897b" id="svg_136" />
                      <path d="m348.28,409.8a9.83,9.83 0 0 0 -3.52,0.59l0,0s-4.77,-0.56 -12.35,-7.58l-4.23,1.84a3.78,3.78 0 0 0 -2.18,3.75a2,2 0 0 0 0.13,0.64a25.32,25.32 0 0 0 1.67,2.9a92.32,92.32 0 0 0 6.84,8.85l0.64,-0.49l-4.08,-5.74c-1.37,-1.95 1.79,-0.87 3.78,0.83s4.55,3.17 8.75,0.05c4.84,-3.66 6.69,-5.44 4.55,-5.64z" fill="#2e353a" id="svg_137" />
                      <path d="m330.65,400.88s10.13,8.72 14.11,9.51c0,0 -3,4.22 -9.62,0.68c-8.56,-4.58 -9.05,-2 -9.05,-2a21.26,21.26 0 0 1 -0.9,-3.86c-0.19,-2.65 5.46,-4.33 5.46,-4.33z" fill="#e4897b" id="svg_138" />
                      <path d="m286.07,199.11c3.3,2.25 8.73,23.11 10.37,24.45s13.77,-5.17 13.77,-5.17l2.65,5.9s-18.32,11.21 -20.84,9.1s-10.76,-24.68 -10.76,-24.68l4.81,-9.6z" fill="#263238" id="svg_139" />
                      <path d="m286.07,199.11c3.3,2.25 8.73,23.11 10.37,24.45s13.77,-5.17 13.77,-5.17l2.65,5.9s-18.32,11.21 -20.84,9.1s-10.76,-24.68 -10.76,-24.68l4.81,-9.6z" fill="#fff" id="svg_140" opacity="0.2" />
                      <path d="m218.76,219.13l12.47,12.61s38.1,13 47.6,-0.81c0,0 -4.14,-20.74 -14.82,-24.29s-45.25,12.49 -45.25,12.49z" fill="#263238" id="svg_141" />
                      <path d="m218.76,219.13l12.47,12.61s38.1,13 47.6,-0.81c0,0 -4.14,-20.74 -14.82,-24.29s-45.25,12.49 -45.25,12.49z" fill="#fff" id="svg_142" opacity="0.1" />
                      <path d="m309.54,223.85l7.55,-4.11l3.56,-8.46a40.86,40.86 0 0 1 4.35,1.77c0.5,0.39 -1.6,7.38 -2.13,7.82s-3.53,0.79 -3.53,0.79l-7.19,4.55l-2.61,-2.36z" fill="#e4897b" id="svg_143" />
                      <path d="m243.27,188.22s24.73,-0.57 42.8,10.89a184.85,184.85 0 0 1 -11.07,41.27l-36.26,-6s3.88,-10.33 -0.42,-31l4.95,-15.16z" fill="#407BFF" id="svg_144" />
                      <path d="m243.27,188.22s24.73,-0.57 42.8,10.89a184.85,184.85 0 0 1 -11.07,41.27l-36.26,-6s3.88,-10.33 -0.42,-31l4.95,-15.16z" fill="#fff" id="svg_145" opacity="0.6" />
                      <path d="m254,187.09c5,21.24 -17,40.25 -33.79,40.48l-4.34,-9.21l17.91,-7.47l9.53,-22.67l10.69,-1.13z" fill="#263238" id="svg_146" />
                      <path d="m278.49,194.47s-3.37,29.7 0.34,36.46c0,0 6.33,-11.59 7.76,-31.33a34,34 0 0 0 -8.1,-5.13z" fill="#263238" id="svg_147" />
                      <path d="m254,187.09c5,21.24 -17,40.25 -33.79,40.48l-4.34,-9.21l17.91,-7.47l9.53,-22.67l10.69,-1.13z" fill="#fff" id="svg_148" opacity="0.3" />
                      <path d="m278.49,194.47s-3.37,29.7 0.34,36.46c0,0 6.33,-11.59 7.76,-31.33a34,34 0 0 0 -8.1,-5.13z" fill="#fff" id="svg_149" opacity="0.3" />
                      <path d="m259.5,187.38s-4.5,-2.38 -11.93,2.19l4.57,3.24l-3.39,3.83a45.6,45.6 0 0 1 -4.75,19.84s8.12,-8.29 10.86,-17.35s1.5,-11.13 4.64,-11.75z" fill="#263238" id="svg_150" />
                      <path d="m274.16,191.4s5.36,1.16 10,7.34l-2.86,0.53l2.78,4.83l-7,15.6s-0.74,-12 -0.39,-19.24a16.34,16.34 0 0 0 -2.53,-9.06z" fill="#263238" id="svg_151" />
                      <path d="m259.5,187.38s-4.5,-2.38 -11.93,2.19l4.57,3.24l-3.39,3.83a45.6,45.6 0 0 1 -4.75,19.84s8.12,-8.29 10.86,-17.35s1.5,-11.13 4.64,-11.75z" fill="#fff" id="svg_152" opacity="0.2" />
                      <path d="m274.16,191.4s5.36,1.16 10,7.34l-2.86,0.53l2.78,4.83l-7,15.6s-0.74,-12 -0.39,-19.24a16.34,16.34 0 0 0 -2.53,-9.06z" fill="#fff" id="svg_153" opacity="0.2" />
                      <path d="m274.83,289.19c-6.05,24.94 -23.51,58.14 -26.92,64.57c-2.66,5.06 -13.21,6.76 -26,8.24c-24.67,2.86 -57.9,7.39 -57.9,7.39l0,-7.78s67.1,-15.81 68.19,-19.42c1.52,-5.11 3.31,-29.41 4.91,-49.86c0.19,-2.28 0.37,-4.51 0.54,-6.66c0.28,-3.54 0.54,-6.83 0.76,-9.67c0.52,-6.51 0.84,-10.73 0.84,-10.73l35.8,-25.27s7.34,18 -0.22,49.19z" fill="#263238" id="svg_154" />
                      <path d="m274.83,289.19c-6.05,24.94 -23.51,58.14 -26.92,64.57c-2.66,5.06 -13.21,6.76 -26,8.24c-24.67,2.86 -57.9,7.39 -57.9,7.39l0,-7.78s67.1,-15.81 68.19,-19.42c1.52,-5.11 3.31,-29.41 4.91,-49.86c0.19,-2.28 0.37,-4.51 0.54,-6.66c0.28,-3.54 0.54,-6.83 0.76,-9.67c0.52,-6.51 0.84,-10.73 0.84,-10.73l35.8,-25.27s7.34,18 -0.22,49.19z" id="svg_155" opacity="0.2" />
                      <path d="m292,320.05c-3.38,-7.4 -32.5,-53.53 -32.5,-53.53l-28.62,4.84c9.23,27.07 42.09,54.72 47.66,61.9s46.95,71.18 46.95,71.18l5.09,-3.6s-31.42,-65.13 -38.58,-80.79z" fill="#263238" id="svg_156" />
                      <path d="m238.71,234.39l37.66,2.45l-0.69,4.32s-4,19.37 -19.89,29.64l-24.91,0.56s-2.91,-15.79 6.9,-34.09l0.93,-2.88z" fill="#263238" id="svg_157" />
                      <polygon id="svg_158" points="251.87 235.64 239.45 234.91 238.51 237.8 251.59 238.78 251.87 235.64" />
                      <polygon id="svg_159" points="253.43 235.73 253.15 238.9 274.92 240.54 275.12 237.01 253.43 235.73" />
                      <path d="m269,241.16l-0.07,0l-4,-0.23a1.2,1.2 0 0 1 -0.81,-0.39a1.16,1.16 0 0 1 -0.29,-0.85l0.17,-2.69a1.17,1.17 0 0 1 1.24,-1.1l4,0.24a1.12,1.12 0 0 1 0.81,0.39a1.14,1.14 0 0 1 0.29,0.85l-0.15,2.65a1.2,1.2 0 0 1 -1.17,1.11l-0.02,0.02zm-3.82,-4.24a0.17,0.17 0 0 0 -0.17,0.16l-0.16,2.66a0.2,0.2 0 0 0 0.17,0.18l4,0.24l0,0a0.19,0.19 0 0 0 0.17,-0.17l0.15,-2.65a0.16,0.16 0 0 0 0,-0.13a0.22,0.22 0 0 0 -0.12,-0.06l-4,-0.23l-0.04,0z" fill="#fff" id="svg_160" />
                      <path d="m269.64,239.19l0,0l-1.51,-0.09a0.5,0.5 0 0 1 -0.47,-0.53a0.5,0.5 0 0 1 0.53,-0.47l1.5,0.09a0.5,0.5 0 0 1 0.47,0.53a0.49,0.49 0 0 1 -0.52,0.47z" fill="#fff" id="svg_161" />
                      <path d="m271,214l10.29,-5.28a10.42,10.42 0 0 1 2.66,-2.71c1.1,-0.51 10.8,1 10.8,1l-3.63,7.67s-7.18,-0.41 -7.94,-1l-9.41,5l-2.77,-4.68z" fill="#e4897b" id="svg_162" />
                      <path d="m243.27,188.22c-9.47,2.46 4.76,37.18 11,39.15s26.25,-11.51 26.25,-11.51l-3.44,-5.78s-17.49,7 -19.09,6.23s-8.06,-18.22 -9.21,-21.34s-5.51,-6.75 -5.51,-6.75z" fill="#263238" id="svg_163" />
                      <path d="m243.27,188.22c-9.47,2.46 4.76,37.18 11,39.15s26.25,-11.51 26.25,-11.51l-3.44,-5.78s-17.49,7 -19.09,6.23s-8.06,-18.22 -9.21,-21.34s-5.51,-6.75 -5.51,-6.75z" fill="#fff" id="svg_164" opacity="0.2" />
                      <path d="m278.75,215.86a0.35,0.35 0 0 1 -0.4,0.27a0.34,0.34 0 0 1 -0.27,-0.4a0.33,0.33 0 0 1 0.4,-0.27a0.35,0.35 0 0 1 0.27,0.4z" fill="#fff" id="svg_165" opacity="0.6" />
                      <path d="m276.35,217.34a0.34,0.34 0 0 1 -0.4,0.27a0.35,0.35 0 0 1 -0.27,-0.4a0.34,0.34 0 0 1 0.67,0.13z" fill="#fff" id="svg_166" opacity="0.6" />
                      <path d="m328.43,197.68l-12.71,32.94a1.75,1.75 0 0 1 -2,1l-23.27,-5.79a1.31,1.31 0 0 1 -0.92,-1.77l12.7,-32.94a1.76,1.76 0 0 1 2,-1l23.27,5.8a1.3,1.3 0 0 1 0.93,1.76z" fill="#263238" id="svg_167" />
                      <path d="m328.43,197.68l-12.71,32.94a1.75,1.75 0 0 1 -2,1l-22.21,-5.53a1.29,1.29 0 0 1 -0.92,-1.77l12.7,-32.94a1.75,1.75 0 0 1 2,-1l22.22,5.53a1.3,1.3 0 0 1 0.92,1.77z" fill="#fff" id="svg_168" opacity="0.3" />
                      <path d="m310.58,208.78a2.51,2.51 0 0 0 -2.87,1.49a1.86,1.86 0 0 0 1.29,2.53a2.5,2.5 0 0 0 2.87,-1.49a1.85,1.85 0 0 1 -1.29,-2.53z" fill="#fff" id="svg_169" opacity="0.3" />
                      <path d="m252.36,195.78s1.47,-6.62 4.08,-8s15.07,0.81 19.4,4.88a17,17 0 0 1 4.8,10l-5.57,-2.36l-8.45,9.52l-6.62,-13.32l-7.64,-0.72z" fill="#407BFF" id="svg_170" />
                      <path d="m252.36,195.78s1.47,-6.62 4.08,-8s15.07,0.81 19.4,4.88a17,17 0 0 1 4.8,10l-5.57,-2.36l-8.45,9.52l-6.62,-13.32l-7.64,-0.72z" fill="#fff" id="svg_171" opacity="0.5" />
                      <path d="m264.88,188.05c7.19,0.55 10.92,5.52 10,9.59l-4.47,0.62l-3.6,9.8l-1.42,-10.89l-4.51,-2.87s-2.88,-6.79 4,-6.25z" fill="#e4897b" id="svg_172" />
                      <path d="m267.53,198.77c-6.86,-5.41 -6.06,-9.65 -6.06,-9.65c3.37,-1.86 5.61,-5.88 6.42,-9a18,18 0 0 0 0.54,-3l7.95,7a30.76,30.76 0 0 0 -2.61,3.56a13.27,13.27 0 0 0 -1.41,2.92c-1,3 0.51,4 0.51,4c-0.2,3.95 -5.34,4.17 -5.34,4.17z" fill="#e4897b" id="svg_173" />
                      <path d="m273.61,187.19a12.89,12.89 0 0 0 -1,3.08c-3.58,-2.17 -5.13,-6.46 -5.78,-9.89a18.17,18.17 0 0 0 0.16,-3l8.77,6a30.45,30.45 0 0 0 -2.15,3.81z" id="svg_174" opacity="0.2" />
                      <path d="m286.35,160.5c8.18,3.95 8.7,9.6 5.23,18.31c-4.34,10.9 -10.29,17.25 -19.43,10.06c-12.41,-9.76 0.62,-34.93 14.2,-28.37z" fill="#e4897b" id="svg_175" />
                      <path d="m286.51,175.8a19.1,19.1 0 0 0 0.74,4.54a2.49,2.49 0 0 1 -2.6,-0.11l1.86,-4.43z" fill="#de5753" id="svg_176" />
                      <path d="m281.83,172.72c-0.31,0.68 -0.93,1.06 -1.38,0.85s-0.57,-0.92 -0.26,-1.6s0.92,-1.06 1.38,-0.86s0.57,0.89 0.26,1.61z" fill="#263238" id="svg_177" />
                      <path d="m281.36,171.06l1.74,0.09s-1.3,0.91 -1.74,-0.09z" fill="#263238" id="svg_178" />
                      <path d="m290.34,176.41c-0.31,0.68 -0.93,1.07 -1.38,0.86s-0.57,-0.92 -0.26,-1.6s0.92,-1.07 1.38,-0.86s0.57,0.92 0.26,1.6z" fill="#263238" id="svg_179" />
                      <path d="m289.87,174.76l1.74,0.09s-1.3,0.91 -1.74,-0.09z" fill="#263238" id="svg_180" />
                      <path d="m284.15,168.28a0.35,0.35 0 0 1 -0.3,-0.18a4.4,4.4 0 0 0 -3.21,-2.09a0.34,0.34 0 0 1 -0.34,-0.36a0.35,0.35 0 0 1 0.36,-0.35c2.36,0.06 3.74,2.35 3.8,2.44a0.36,0.36 0 0 1 -0.13,0.49a0.37,0.37 0 0 1 -0.18,0.05z" fill="#263238" id="svg_181" />
                      <path d="m294,171.15l-0.15,0a3.92,3.92 0 0 0 -3.37,-0.21a0.35,0.35 0 0 1 -0.48,-0.14a0.34,0.34 0 0 1 0.14,-0.48a4.59,4.59 0 0 1 4,0.19a0.36,0.36 0 0 1 0.17,0.47a0.35,0.35 0 0 1 -0.31,0.17z" fill="#263238" id="svg_182" />
                      <path d="m270.76,170s7.07,-4.87 9,-10.34c0,0 19.41,1.21 12.26,18c0,0 8.64,-13.84 -5.26,-21s-23.76,13.53 -19.49,23.16c0,0 -0.91,-6.82 3.49,-9.82z" fill="#263238" id="svg_183" />
                      <path d="m271.26,172.33a4,4 0 0 0 -2.28,-5.14c-2.67,-0.95 -6.39,3.67 -0.69,8c0.82,0.58 1.76,-0.05 2.97,-2.86z" fill="#e4897b" id="svg_184" />
                      <path d="m279.39,152.44s6.17,-1.38 10.12,0.58s4.22,4.9 4.22,4.9a5.8,5.8 0 0 1 5.1,1.57c2.46,2.27 3.91,8.8 1.3,15.79s-8.7,6 -8.7,6s7.94,-10.37 -0.52,-17.11c0,0 -2.77,-3.32 -6,-1.31s-5.53,10.4 -12.64,4.94s0.99,-13.75 7.12,-15.36z" fill="#263238" id="svg_185" />
                      <path d="m282.74,183.87a0.36,0.36 0 0 1 -0.35,-0.31c-0.16,-1.27 -2.29,-2.71 -3.1,-3.15a0.37,0.37 0 0 1 -0.14,-0.49a0.35,0.35 0 0 1 0.48,-0.13c0.13,0.07 3.22,1.8 3.46,3.68a0.36,0.36 0 0 1 -0.3,0.4l-0.05,0z" fill="#263238" id="svg_186" />
                      <path d="m280,153.75s-4.29,-14.24 -13.61,-10.14s-13.85,14.39 -21.39,8.39s-11,1.78 -14.66,4.15s-10.14,-1.19 -8.41,-4.15c0,0 -4.75,3.63 3.67,7.45s12.55,-4.16 15.23,-1.14s12.17,9.03 17.17,4.69a10.36,10.36 0 0 1 10.46,-1.94l11.54,-7.31z" fill="#263238" id="svg_187" />
                      <path d="m254.81,167a5.34,5.34 0 0 1 -1.89,-0.35a53.08,53.08 0 0 1 -5.27,-2.43c-3.72,-1.88 -7.24,-3.66 -9.2,-2.11a0.25,0.25 0 0 1 -0.35,0a0.24,0.24 0 0 1 0,-0.35c2.21,-1.74 5.87,0.11 9.73,2.06a53.41,53.41 0 0 0 5.23,2.42c3.26,1.21 6.36,-1.4 9.1,-3.71c2,-1.66 3.82,-3.22 5.56,-3.27a0.25,0.25 0 0 1 0.26,0.24a0.26,0.26 0 0 1 -0.25,0.26c-1.56,0.05 -3.35,1.55 -5.24,3.15c-2.29,1.87 -4.88,4.09 -7.68,4.09z" fill="#263238" id="svg_188" />
                      <path d="m228.5,154.49a2.9,2.9 0 0 1 -1.75,-0.59a0.24,0.24 0 0 1 -0.06,-0.35a0.25,0.25 0 0 1 0.34,-0.06c2.16,1.53 4.46,-0.77 6.7,-3c1.58,-1.58 3.07,-3.07 4.53,-3.25s3.28,0.78 5.44,2a27.28,27.28 0 0 0 11,4.16a0.25,0.25 0 0 1 -0.05,0.5a27.91,27.91 0 0 1 -11.23,-4.23c-2.07,-1.21 -3.71,-2.16 -5.12,-2s-2.72,1.59 -4.24,3.11c-1.72,1.8 -3.64,3.71 -5.56,3.71z" fill="#263238" id="svg_189" />
                      <path d="m277.08,172.16a6.6,6.6 0 0 1 -3.05,-0.89a0.25,0.25 0 0 1 -0.08,-0.35a0.24,0.24 0 0 1 0.34,-0.07c0.15,0.09 3.6,2.2 5.52,-0.7c4.94,-7.51 6.71,-9.35 9.72,-8.05a0.24,0.24 0 0 1 0.13,0.33a0.26,0.26 0 0 1 -0.33,0.13c-2.54,-1.1 -4.07,0.22 -9.11,7.87a3.59,3.59 0 0 1 -3.14,1.73z" fill="#263238" id="svg_190" />
                    </g>
                    <g id="freepik--sheets-1--inject-3">
                      <path d="m319,222.63l20.43,-8s23.16,13.55 37.88,15.79l-25.46,5s-27.55,-5.42 -32.85,-12.79z" fill="#407BFF" id="svg_191" />
                      <path d="m195.25,288.27l15.52,-14s26.53,4 47.23,14l-21.62,13.27s-20.38,-10.35 -41.13,-13.27z" fill="#407BFF" id="svg_192" />
                      <path d="m70.83,306.16l19.94,-6.88s17.3,18.49 31.09,18.49l-22.86,10.98s-24.37,-9.33 -28.17,-22.59z" fill="#407BFF" id="svg_193" />
                      <path d="m147.33,236.88s26,-3 44.47,11.32l-9.51,11.71s-22.85,-9.66 -42.85,-4l7.89,-19.03z" fill="#407BFF" id="svg_194" />
                      <path d="m382.05,346.24l25.08,4.28s-21.77,14.48 -40.13,17.1l-19.79,-6.41s23.86,-2.49 34.84,-14.97z" fill="#407BFF" id="svg_195" />
                      <path d="m374.09,302.81s24.11,-1.3 41.16,5.77l10.23,-9.76s-26.77,-11.73 -44,-5.87l-7.39,9.86z" fill="#407BFF" id="svg_196" />
                      <path d="m209.29,395s12.05,-12.69 42.14,-16l18.24,8.22s-27.21,5.91 -39.6,11.66l-20.78,-3.88z" fill="#407BFF" id="svg_197" />
                      <path d="m319,222.63l20.43,-8s23.16,13.55 37.88,15.79l-25.46,5s-27.55,-5.42 -32.85,-12.79z" fill="#fff" id="svg_198" opacity="0.6" />
                      <path d="m195.25,288.27l15.52,-14s26.53,4 47.23,14l-21.62,13.27s-20.38,-10.35 -41.13,-13.27z" fill="#fff" id="svg_199" opacity="0.6" />
                      <path d="m70.83,306.16l19.94,-6.88s17.3,18.49 31.09,18.49l-22.86,10.98s-24.37,-9.33 -28.17,-22.59z" fill="#fff" id="svg_200" opacity="0.6" />
                      <path d="m147.33,236.88s26,-3 44.47,11.32l-9.51,11.71s-22.85,-9.66 -42.85,-4l7.89,-19.03z" fill="#fff" id="svg_201" opacity="0.4" />
                      <path d="m382.05,346.24l25.08,4.28s-21.77,14.48 -40.13,17.1l-19.79,-6.41s23.86,-2.49 34.84,-14.97z" fill="#fff" id="svg_202" opacity="0.8" />
                      <path d="m374.09,302.81s24.11,-1.3 41.16,5.77l10.23,-9.76s-26.77,-11.73 -44,-5.87l-7.39,9.86z" fill="#fff" id="svg_203" opacity="0.4" />
                      <path d="m209.29,395s12.05,-12.69 42.14,-16l18.24,8.22s-27.21,5.91 -39.6,11.66l-20.78,-3.88z" fill="#fff" id="svg_204" opacity="0.4" />
                    </g>
                  </g>
                </svg>